<svg xmlns="http://www.w3.org/2000/svg" xmlns:xlink="http://www.w3.org/1999/xlink" xmlns:lucid="lucid" width="1800" height="1320"><g transform="translate(20 -19.999999999999986)" lucid:page-tab-id="0_0"><path d="M0 0h1760v1360H0z" fill="#fff"/><path d="M0 46c0-3.3 2.7-6 6-6h1748c3.3 0 6 2.7 6 6v227.58c0 3.32-2.7 6-6 6H6c-3.3 0-6-2.68-6-6z" stroke="#fff" stroke-width="3" fill="#b2d6ef"/><path d="M0 285.58c0-3.3 2.7-6 6-6h1748c3.3 0 6 2.7 6 6v228.84c0 3.3-2.7 6-6 6H6c-3.3 0-6-2.7-6-6z" stroke="#fff" stroke-width="3" fill="#c7e8ac"/><path d="M0 526c0-3.3 2.7-6 6-6h1748c3.3 0 6 2.7 6 6v228.83c0 3.32-2.7 6-6 6H6c-3.3 0-6-2.68-6-6z" stroke="#fff" stroke-width="3" fill="#ffdba9"/><path d="M0 1026c0-3.3 2.7-6 6-6h1748c3.3 0 6 2.7 6 6v288c0 3.3-2.7 6-6 6H6c-3.3 0-6-2.7-6-6z" stroke="#fff" stroke-width="3" fill="#ccc"/><path d="M0 766c0-3.3 2.7-6 6-6h1748c3.3 0 6 2.7 6 6v248c0 3.3-2.7 6-6 6H6c-3.3 0-6-2.7-6-6z" stroke="#fff" stroke-width="3" fill="#f9d2de"/><path d="M1000 107.67c0-3.32 2.7-6 6-6h128c3.3 0 6 2.68 6 6V194c0 3.3-2.7 6-6 6h-128c-3.3 0-6-2.7-6-6z" stroke="#5e5e5e" stroke-width="3" fill="#fff"/><use xlink:href="#a" transform="matrix(1,0,0,1,1005,106.66666666666667) translate(31.111111111111107 23.34027777777778)"/><use xlink:href="#b" transform="matrix(1,0,0,1,1005,106.66666666666667) translate(5.8333333333333215 50.00694444444445)"/><use xlink:href="#c" transform="matrix(1,0,0,1,1005,106.66666666666667) translate(36.01851851851852 76.67361111111111)"/><path d="M620 366c0-3.3 2.7-6 6-6h128c3.3 0 6 2.7 6 6v68c0 3.3-2.7 6-6 6H626c-3.3 0-6-2.7-6-6z" stroke="#5e5e5e" stroke-width="3" fill="#fff"/><use xlink:href="#d" transform="matrix(1,0,0,1,625,365) translate(1.9135802469135967 27.34722222222222)"/><use xlink:href="#e" transform="matrix(1,0,0,1,625,365) translate(70.95061728395062 27.34722222222222)"/><use xlink:href="#f" transform="matrix(1,0,0,1,625,365) translate(38.92592592592593 48.68055555555555)"/><path d="M1000 366c0-3.3 2.7-6 6-6h128c3.3 0 6 2.7 6 6v68c0 3.3-2.7 6-6 6h-128c-3.3 0-6-2.7-6-6z" stroke="#5e5e5e" stroke-width="3" fill="#fff"/><use xlink:href="#d" transform="matrix(1,0,0,1,1005,365) translate(1.9135802469135967 27.34722222222222)"/><use xlink:href="#e" transform="matrix(1,0,0,1,1005,365) translate(70.95061728395062 27.34722222222222)"/><use xlink:href="#f" transform="matrix(1,0,0,1,1005,365) translate(38.92592592592593 48.68055555555555)"/><path d="M1380 366c0-3.3 2.7-6 6-6h128c3.3 0 6 2.7 6 6v68c0 3.3-2.7 6-6 6h-128c-3.3 0-6-2.7-6-6z" stroke="#5e5e5e" stroke-width="3" fill="#fff"/><use xlink:href="#d" transform="matrix(1,0,0,1,1385,365) translate(1.9135802469135967 27.34722222222222)"/><use xlink:href="#e" transform="matrix(1,0,0,1,1385,365) translate(70.95061728395062 27.34722222222222)"/><use xlink:href="#f" transform="matrix(1,0,0,1,1385,365) translate(38.92592592592593 48.68055555555555)"/><path d="M620 606c0-3.3 2.7-6 6-6h128c3.3 0 6 2.7 6 6v68c0 3.3-2.7 6-6 6H626c-3.3 0-6-2.7-6-6z" stroke="#5e5e5e" stroke-width="3" fill="#fff"/><use xlink:href="#g" transform="matrix(1,0,0,1,625,605) translate(22.4320987654321 38.28472222222222)"/><use xlink:href="#h" transform="matrix(1,0,0,1,625,605) translate(67.12345679012346 38.28472222222222)"/><path d="M1000 606c0-3.3 2.7-6 6-6h128c3.3 0 6 2.7 6 6v68c0 3.3-2.7 6-6 6h-128c-3.3 0-6-2.7-6-6z" stroke="#5e5e5e" stroke-width="3" fill="#fff"/><use xlink:href="#g" transform="matrix(1,0,0,1,1005,605) translate(22.4320987654321 38.28472222222222)"/><use xlink:href="#h" transform="matrix(1,0,0,1,1005,605) translate(67.12345679012346 38.28472222222222)"/><path d="M1380 606c0-3.3 2.7-6 6-6h128c3.3 0 6 2.7 6 6v68c0 3.3-2.7 6-6 6h-128c-3.3 0-6-2.7-6-6z" stroke="#5e5e5e" stroke-width="3" fill="#fff"/><use xlink:href="#g" transform="matrix(1,0,0,1,1385,605) translate(22.4320987654321 38.28472222222222)"/><use xlink:href="#h" transform="matrix(1,0,0,1,1385,605) translate(67.12345679012346 38.28472222222222)"/><path d="M520 811c0-3.3 2.7-6 6-6h128c3.3 0 6 2.7 6 6v68c0 3.3-2.7 6-6 6H526c-3.3 0-6-2.7-6-6z" stroke="#5e5e5e" stroke-width="3" fill="#fff"/><use xlink:href="#i" transform="matrix(1,0,0,1,525,810) translate(19.123456790123463 38.28472222222222)"/><path d="M900 811c0-3.3 2.7-6 6-6h128c3.3 0 6 2.7 6 6v68c0 3.3-2.7 6-6 6H906c-3.3 0-6-2.7-6-6z" stroke="#5e5e5e" stroke-width="3" fill="#fff"/><use xlink:href="#i" transform="matrix(1,0,0,1,905,810) translate(19.123456790123463 38.28472222222222)"/><path d="M1280 811c0-3.3 2.7-6 6-6h128c3.3 0 6 2.7 6 6v68c0 3.3-2.7 6-6 6h-128c-3.3 0-6-2.7-6-6z" stroke="#5e5e5e" stroke-width="3" fill="#fff"/><use xlink:href="#i" transform="matrix(1,0,0,1,1285,810) translate(19.123456790123463 38.28472222222222)"/><path d="M720 811c0-3.3 2.7-6 6-6h128c3.3 0 6 2.7 6 6v68c0 3.3-2.7 6-6 6H726c-3.3 0-6-2.7-6-6z" stroke="#5e5e5e" stroke-width="3" fill="#fff"/><use xlink:href="#i" transform="matrix(1,0,0,1,725,810) translate(19.123456790123463 38.28472222222222)"/><path d="M1100 811c0-3.3 2.7-6 6-6h128c3.3 0 6 2.7 6 6v68c0 3.3-2.7 6-6 6h-128c-3.3 0-6-2.7-6-6z" stroke="#5e5e5e" stroke-width="3" fill="#fff"/><use xlink:href="#i" transform="matrix(1,0,0,1,1105,810) translate(19.123456790123463 38.28472222222222)"/><path d="M1480 811c0-3.3 2.7-6 6-6h128c3.3 0 6 2.7 6 6v68c0 3.3-2.7 6-6 6h-128c-3.3 0-6-2.7-6-6z" stroke="#5e5e5e" stroke-width="3" fill="#fff"/><use xlink:href="#i" transform="matrix(1,0,0,1,1485,810) translate(19.123456790123463 38.28472222222222)"/><path d="M511 1206c0-3.3 2.7-6 6-6h68c3.3 0 6 2.7 6 6v68c0 3.3-2.7 6-6 6h-68c-3.3 0-6-2.7-6-6z" stroke="#5e5e5e" stroke-width="3" fill="#fff"/><use xlink:href="#j" transform="matrix(1,0,0,1,516,1205) translate(2.9506172839506206 27.34722222222222)"/><use xlink:href="#k" transform="matrix(1,0,0,1,516,1205) translate(5.41975308641976 48.68055555555555)"/><path d="M651 1206c0-3.3 2.7-6 6-6h68c3.3 0 6 2.7 6 6v68c0 3.3-2.7 6-6 6h-68c-3.3 0-6-2.7-6-6z" stroke="#5e5e5e" stroke-width="3" fill="#fff"/><use xlink:href="#j" transform="matrix(1,0,0,1,656,1205) translate(2.9506172839506206 27.34722222222222)"/><use xlink:href="#k" transform="matrix(1,0,0,1,656,1205) translate(5.41975308641976 48.68055555555555)"/><path d="M791 1206c0-3.3 2.7-6 6-6h68c3.3 0 6 2.7 6 6v68c0 3.3-2.7 6-6 6h-68c-3.3 0-6-2.7-6-6z" stroke="#5e5e5e" stroke-width="3" fill="#fff"/><use xlink:href="#j" transform="matrix(1,0,0,1,796,1205) translate(2.9506172839506206 27.34722222222222)"/><use xlink:href="#k" transform="matrix(1,0,0,1,796,1205) translate(5.41975308641976 48.68055555555555)"/><path d="M931 1206c0-3.3 2.7-6 6-6h68c3.3 0 6 2.7 6 6v68c0 3.3-2.7 6-6 6h-68c-3.3 0-6-2.7-6-6z" stroke="#5e5e5e" stroke-width="3" fill="#fff"/><use xlink:href="#j" transform="matrix(1,0,0,1,936,1205) translate(2.9506172839506206 27.34722222222222)"/><use xlink:href="#k" transform="matrix(1,0,0,1,936,1205) translate(5.41975308641976 48.68055555555555)"/><path d="M1071 1206c0-3.3 2.7-6 6-6h68c3.3 0 6 2.7 6 6v68c0 3.3-2.7 6-6 6h-68c-3.3 0-6-2.7-6-6z" stroke="#5e5e5e" stroke-width="3" fill="#fff"/><use xlink:href="#j" transform="matrix(1,0,0,1,1076,1205) translate(2.9506172839506206 27.34722222222222)"/><use xlink:href="#k" transform="matrix(1,0,0,1,1076,1205) translate(5.41975308641976 48.68055555555555)"/><path d="M1211 1206c0-3.3 2.7-6 6-6h68c3.3 0 6 2.7 6 6v68c0 3.3-2.7 6-6 6h-68c-3.3 0-6-2.7-6-6z" stroke="#5e5e5e" stroke-width="3" fill="#fff"/><use xlink:href="#j" transform="matrix(1,0,0,1,1216,1205) translate(2.9506172839506206 27.34722222222222)"/><use xlink:href="#k" transform="matrix(1,0,0,1,1216,1205) translate(5.41975308641976 48.68055555555555)"/><path d="M1351 1206c0-3.3 2.7-6 6-6h68c3.3 0 6 2.7 6 6v68c0 3.3-2.7 6-6 6h-68c-3.3 0-6-2.7-6-6z" stroke="#5e5e5e" stroke-width="3" fill="#fff"/><use xlink:href="#j" transform="matrix(1,0,0,1,1356,1205) translate(2.9506172839506206 27.34722222222222)"/><use xlink:href="#k" transform="matrix(1,0,0,1,1356,1205) translate(5.41975308641976 48.68055555555555)"/><path d="M1491 1206c0-3.3 2.7-6 6-6h68c3.3 0 6 2.7 6 6v68c0 3.3-2.7 6-6 6h-68c-3.3 0-6-2.7-6-6z" stroke="#5e5e5e" stroke-width="3" fill="#fff"/><use xlink:href="#j" transform="matrix(1,0,0,1,1496,1205) translate(2.9506172839506206 27.34722222222222)"/><use xlink:href="#k" transform="matrix(1,0,0,1,1496,1205) translate(5.41975308641976 48.68055555555555)"/><path d="M1631 1206c0-3.3 2.7-6 6-6h68c3.3 0 6 2.7 6 6v68c0 3.3-2.7 6-6 6h-68c-3.3 0-6-2.7-6-6z" stroke="#5e5e5e" stroke-width="3" fill="#fff"/><use xlink:href="#j" transform="matrix(1,0,0,1,1636,1205) translate(2.9506172839506206 27.34722222222222)"/><use xlink:href="#k" transform="matrix(1,0,0,1,1636,1205) translate(5.41975308641976 48.68055555555555)"/><path d="M440 1086c0-3.3 2.7-6 6-6h68c3.3 0 6 2.7 6 6v68c0 3.3-2.7 6-6 6h-68c-3.3 0-6-2.7-6-6z" stroke="#5e5e5e" stroke-width="3" fill="#fff"/><use xlink:href="#j" transform="matrix(1,0,0,1,444.99999999999994,1085) translate(2.9506172839506206 27.34722222222222)"/><use xlink:href="#k" transform="matrix(1,0,0,1,444.99999999999994,1085) translate(5.41975308641976 48.68055555555555)"/><path d="M580 1086c0-3.3 2.7-6 6-6h68c3.3 0 6 2.7 6 6v68c0 3.3-2.7 6-6 6h-68c-3.3 0-6-2.7-6-6z" stroke="#5e5e5e" stroke-width="3" fill="#fff"/><use xlink:href="#j" transform="matrix(1,0,0,1,585,1085) translate(2.9506172839506206 27.34722222222222)"/><use xlink:href="#k" transform="matrix(1,0,0,1,585,1085) translate(5.41975308641976 48.68055555555555)"/><path d="M720 1086c0-3.3 2.7-6 6-6h68c3.3 0 6 2.7 6 6v68c0 3.3-2.7 6-6 6h-68c-3.3 0-6-2.7-6-6z" stroke="#5e5e5e" stroke-width="3" fill="#fff"/><use xlink:href="#j" transform="matrix(1,0,0,1,725,1085) translate(2.9506172839506206 27.34722222222222)"/><use xlink:href="#k" transform="matrix(1,0,0,1,725,1085) translate(5.41975308641976 48.68055555555555)"/><path d="M860 1086c0-3.3 2.7-6 6-6h68c3.3 0 6 2.7 6 6v68c0 3.3-2.7 6-6 6h-68c-3.3 0-6-2.7-6-6z" stroke="#5e5e5e" stroke-width="3" fill="#fff"/><use xlink:href="#j" transform="matrix(1,0,0,1,865,1085) translate(2.9506172839506206 27.34722222222222)"/><use xlink:href="#k" transform="matrix(1,0,0,1,865,1085) translate(5.41975308641976 48.68055555555555)"/><path d="M1000 1086c0-3.3 2.7-6 6-6h68c3.3 0 6 2.7 6 6v68c0 3.3-2.7 6-6 6h-68c-3.3 0-6-2.7-6-6z" stroke="#5e5e5e" stroke-width="3" fill="#fff"/><use xlink:href="#j" transform="matrix(1,0,0,1,1005,1085) translate(2.9506172839506206 27.34722222222222)"/><use xlink:href="#k" transform="matrix(1,0,0,1,1005,1085) translate(5.41975308641976 48.68055555555555)"/><path d="M1140 1086c0-3.3 2.7-6 6-6h68c3.3 0 6 2.7 6 6v68c0 3.3-2.7 6-6 6h-68c-3.3 0-6-2.7-6-6z" stroke="#5e5e5e" stroke-width="3" fill="#fff"/><use xlink:href="#j" transform="matrix(1,0,0,1,1145,1085) translate(2.9506172839506206 27.34722222222222)"/><use xlink:href="#k" transform="matrix(1,0,0,1,1145,1085) translate(5.41975308641976 48.68055555555555)"/><path d="M1280 1086c0-3.3 2.7-6 6-6h68c3.3 0 6 2.7 6 6v68c0 3.3-2.7 6-6 6h-68c-3.3 0-6-2.7-6-6z" stroke="#5e5e5e" stroke-width="3" fill="#fff"/><use xlink:href="#j" transform="matrix(1,0,0,1,1285,1085) translate(2.9506172839506206 27.34722222222222)"/><use xlink:href="#k" transform="matrix(1,0,0,1,1285,1085) translate(5.41975308641976 48.68055555555555)"/><path d="M1420 1086c0-3.3 2.7-6 6-6h68c3.3 0 6 2.7 6 6v68c0 3.3-2.7 6-6 6h-68c-3.3 0-6-2.7-6-6z" stroke="#5e5e5e" stroke-width="3" fill="#fff"/><use xlink:href="#j" transform="matrix(1,0,0,1,1425,1085) translate(2.9506172839506206 27.34722222222222)"/><use xlink:href="#k" transform="matrix(1,0,0,1,1425,1085) translate(5.41975308641976 48.68055555555555)"/><path d="M1560 1086c0-3.3 2.7-6 6-6h68c3.3 0 6 2.7 6 6v68c0 3.3-2.7 6-6 6h-68c-3.3 0-6-2.7-6-6z" stroke="#5e5e5e" stroke-width="3" fill="#fff"/><use xlink:href="#j" transform="matrix(1,0,0,1,1565,1085) translate(2.9506172839506206 27.34722222222222)"/><use xlink:href="#k" transform="matrix(1,0,0,1,1565,1085) translate(5.41975308641976 48.68055555555555)"/><path d="M40 1126c0-3.3 2.7-6 6-6h328c3.3 0 6 2.7 6 6v104.67c0 3.3-2.7 6-6 6H46c-3.3 0-6-2.7-6-6z" stroke="#000" stroke-opacity="0" stroke-width="3" fill="#fff" fill-opacity="0"/><use xlink:href="#l" transform="matrix(1,0,0,1,45,1125) translate(81.79012345679013 31.15277777777778)"/><use xlink:href="#m" transform="matrix(1,0,0,1,45,1125) translate(147.1604938271605 31.15277777777778)"/><use xlink:href="#n" transform="matrix(1,0,0,1,45,1125) translate(165.679012345679 31.15277777777778)"/><use xlink:href="#o" transform="matrix(1,0,0,1,45,1125) translate(6.635802469135797 57.81944444444445)"/><use xlink:href="#p" transform="matrix(1,0,0,1,45,1125) translate(92.93209876543209 57.81944444444445)"/><use xlink:href="#q" transform="matrix(1,0,0,1,45,1125) translate(173.05555555555554 57.81944444444445)"/><use xlink:href="#r" transform="matrix(1,0,0,1,45,1125) translate(90.98765432098764 84.48611111111111)"/><use xlink:href="#s" transform="matrix(1,0,0,1,45,1125) translate(129.19753086419752 84.48611111111111)"/><path d="M40 814.33c0-3.3 2.7-6 6-6h328c3.3 0 6 2.7 6 6v131.34c0 3.3-2.7 6-6 6H46c-3.3 0-6-2.7-6-6z" stroke="#000" stroke-opacity="0" stroke-width="3" fill="#fff" fill-opacity="0"/><use xlink:href="#l" transform="matrix(1,0,0,1,45,813.3333333333334) translate(81.79012345679013 21.96527777777778)"/><use xlink:href="#t" transform="matrix(1,0,0,1,45,813.3333333333334) translate(147.1604938271605 21.96527777777778)"/><use xlink:href="#n" transform="matrix(1,0,0,1,45,813.3333333333334) translate(165.679012345679 21.96527777777778)"/><use xlink:href="#u" transform="matrix(1,0,0,1,45,813.3333333333334) translate(47.96296296296296 48.63194444444444)"/><use xlink:href="#v" transform="matrix(1,0,0,1,45,813.3333333333334) translate(125.55555555555556 48.63194444444444)"/><use xlink:href="#w" transform="matrix(1,0,0,1,45,813.3333333333334) translate(189.5679012345679 48.63194444444444)"/><use xlink:href="#x" transform="matrix(1,0,0,1,45,813.3333333333334) translate(250 48.63194444444444)"/><use xlink:href="#y" transform="matrix(1,0,0,1,45,813.3333333333334) translate(29.382716049382708 75.29861111111111)"/><use xlink:href="#z" transform="matrix(1,0,0,1,45,813.3333333333334) translate(145.37037037037038 75.29861111111111)"/><use xlink:href="#A" transform="matrix(1,0,0,1,45,813.3333333333334) translate(178.58024691358025 75.29861111111111)"/><use xlink:href="#B" transform="matrix(1,0,0,1,45,813.3333333333334) translate(277.1604938271605 75.29861111111111)"/><use xlink:href="#C" transform="matrix(1,0,0,1,45,813.3333333333334) translate(14.598765432098759 101.96527777777777)"/><use xlink:href="#D" transform="matrix(1,0,0,1,45,813.3333333333334) translate(112.0679012345679 101.96527777777777)"/><use xlink:href="#E" transform="matrix(1,0,0,1,45,813.3333333333334) translate(162.56172839506172 101.96527777777777)"/><use xlink:href="#F" transform="matrix(1,0,0,1,45,813.3333333333334) translate(245.1543209876543 101.96527777777777)"/><use xlink:href="#G" transform="matrix(1,0,0,1,45,813.3333333333334) translate(129.25925925925927 128.63194444444446)"/><path d="M40 587.67c0-3.32 2.7-6 6-6h328c3.3 0 6 2.68 6 6v104.66c0 3.32-2.7 6-6 6H46c-3.3 0-6-2.68-6-6z" stroke="#000" stroke-opacity="0" stroke-width="3" fill="#fff" fill-opacity="0"/><use xlink:href="#l" transform="matrix(1,0,0,1,45,586.6666666666667) translate(81.79012345679013 17.77777777777778)"/><use xlink:href="#H" transform="matrix(1,0,0,1,45,586.6666666666667) translate(147.1604938271605 17.77777777777778)"/><use xlink:href="#I" transform="matrix(1,0,0,1,45,586.6666666666667) translate(165.679012345679 17.77777777777778)"/><use xlink:href="#J" transform="matrix(1,0,0,1,45,586.6666666666667) translate(23.302469135802482 44.44444444444444)"/><use xlink:href="#K" transform="matrix(1,0,0,1,45,586.6666666666667) translate(100.89506172839508 44.44444444444444)"/><use xlink:href="#L" transform="matrix(1,0,0,1,45,586.6666666666667) translate(164.90740740740742 44.44444444444444)"/><use xlink:href="#r" transform="matrix(1,0,0,1,45,586.6666666666667) translate(225.33950617283952 44.44444444444444)"/><use xlink:href="#M" transform="matrix(1,0,0,1,45,586.6666666666667) translate(263.5493827160494 44.44444444444444)"/><use xlink:href="#N" transform="matrix(1,0,0,1,45,586.6666666666667) translate(12.006172839506178 71.11111111111111)"/><use xlink:href="#O" transform="matrix(1,0,0,1,45,586.6666666666667) translate(66.32716049382717 71.11111111111111)"/><use xlink:href="#P" transform="matrix(1,0,0,1,45,586.6666666666667) translate(116.82098765432099 71.11111111111111)"/><use xlink:href="#Q" transform="matrix(1,0,0,1,45,586.6666666666667) translate(153.85802469135803 71.11111111111111)"/><use xlink:href="#R" transform="matrix(1,0,0,1,45,586.6666666666667) translate(280.9567901234568 71.11111111111111)"/><use xlink:href="#S" transform="matrix(1,0,0,1,45,586.6666666666667) translate(83.02469135802468 97.77777777777777)"/><use xlink:href="#T" transform="matrix(1,0,0,1,45,586.6666666666667) translate(165.61728395061726 97.77777777777777)"/><path d="M40 329.33c0-3.3 2.7-6 6-6h328c3.3 0 6 2.7 6 6V434c0 3.3-2.7 6-6 6H46c-3.3 0-6-2.7-6-6z" stroke="#000" stroke-opacity="0" stroke-width="3" fill="#fff" fill-opacity="0"/><use xlink:href="#l" transform="matrix(1,0,0,1,45,328.3333333333334) translate(81.79012345679013 31.15277777777778)"/><use xlink:href="#U" transform="matrix(1,0,0,1,45,328.3333333333334) translate(147.1604938271605 31.15277777777778)"/><use xlink:href="#I" transform="matrix(1,0,0,1,45,328.3333333333334) translate(165.679012345679 31.15277777777778)"/><use xlink:href="#V" transform="matrix(1,0,0,1,45,328.3333333333334) translate(9.537037037037038 57.81944444444445)"/><use xlink:href="#L" transform="matrix(1,0,0,1,45,328.3333333333334) translate(118.11728395061728 57.81944444444445)"/><use xlink:href="#W" transform="matrix(1,0,0,1,45,328.3333333333334) translate(178.54938271604937 57.81944444444445)"/><use xlink:href="#X" transform="matrix(1,0,0,1,45,328.3333333333334) translate(210.5864197530864 57.81944444444445)"/><use xlink:href="#Y" transform="matrix(1,0,0,1,45,328.3333333333334) translate(264.9074074074074 57.81944444444445)"/><use xlink:href="#Z" transform="matrix(1,0,0,1,45,328.3333333333334) translate(289.59876543209873 57.81944444444445)"/><use xlink:href="#aa" transform="matrix(1,0,0,1,45,328.3333333333334) translate(31.296296296296305 84.48611111111111)"/><use xlink:href="#S" transform="matrix(1,0,0,1,45,328.3333333333334) translate(68.33333333333334 84.48611111111111)"/><use xlink:href="#ab" transform="matrix(1,0,0,1,45,328.3333333333334) translate(150.92592592592592 84.48611111111111)"/><use xlink:href="#ac" transform="matrix(1,0,0,1,45,328.3333333333334) translate(223.64197530864197 84.48611111111111)"/><path d="M40 107.67c0-3.32 2.7-6 6-6h328c3.3 0 6 2.68 6 6v104.66c0 3.32-2.7 6-6 6H46c-3.3 0-6-2.68-6-6z" stroke="#000" stroke-opacity="0" stroke-width="3" fill="#fff" fill-opacity="0"/><use xlink:href="#l" transform="matrix(1,0,0,1,45,106.66666666666667) translate(81.79012345679013 44.52777777777778)"/><use xlink:href="#ad" transform="matrix(1,0,0,1,45,106.66666666666667) translate(147.1604938271605 44.52777777777778)"/><use xlink:href="#I" transform="matrix(1,0,0,1,45,106.66666666666667) translate(165.679012345679 44.52777777777778)"/><use xlink:href="#ae" transform="matrix(1,0,0,1,45,106.66666666666667) translate(41.111111111111114 71.19444444444446)"/><use xlink:href="#af" transform="matrix(1,0,0,1,45,106.66666666666667) translate(128.51851851851853 71.19444444444446)"/><use xlink:href="#ag" transform="matrix(1,0,0,1,45,106.66666666666667) translate(234.62962962962965 71.19444444444446)"/><path d="M690.02 357.5l.06-1 .1-1 .15-.98.2-.98.22-.98.27-.98.33-1 .37-1 .43-1 .5-1.05.54-1.07.63-1.1.7-1.12.82-1.16.93-1.22 1.05-1.27 1.2-1.35 1.4-1.4 1.58-1.5 1.87-1.6 2.18-1.73 2.57-1.86 3.07-2.04 3.7-2.25 4.58-2.5 5.7-2.84 7.33-3.25 9.68-3.82 13.36-4.63 19.8-5.95 34.53-8.77 174.78-38.98 19.8-5.95 13.37-4.63 9.67-3.82 7.3-3.25 5.72-2.83 4.57-2.5 3.7-2.26 3.08-2.04 2.57-1.86 2.18-1.72 1.86-1.6 1.58-1.5 1.4-1.4 1.2-1.35.8-.98" stroke="#5e5e5e" stroke-width="2" fill="none"/><path d="M691.02 357.5l-.02 1h-2l.02-1.05z" fill="#5e5e5e"/><path d="M1068.84 204.52l-.8 14.98-8.65-3.33z" stroke="#5e5e5e" stroke-width="2" fill="#5e5e5e"/><path d="M1449.98 357.5l-.06-1-.1-1-.15-.98-.2-.98-.22-.98-.27-.98-.33-1-.37-1-.43-1-.5-1.05-.54-1.07-.63-1.1-.7-1.12-.82-1.16-.93-1.22-1.05-1.27-1.2-1.35-1.4-1.4-1.58-1.5-1.87-1.6-2.18-1.73-2.57-1.86-3.07-2.04-3.7-2.25-4.58-2.5-5.7-2.84-7.33-3.25-9.68-3.82-13.36-4.63-19.8-5.95-34.53-8.77-174.78-38.98-19.8-5.95-13.37-4.63-9.67-3.82-7.3-3.25-5.72-2.83-4.57-2.5-3.7-2.26-3.08-2.04-2.57-1.86-2.18-1.72-1.86-1.6-1.58-1.5-1.4-1.4-1.2-1.35-.8-.98" stroke="#5e5e5e" stroke-width="2" fill="none"/><path d="M1451 358.5h-2l-.02-1 2-.05z" fill="#5e5e5e"/><path d="M1071.16 204.52l9.45 11.65-8.64 3.33z" stroke="#5e5e5e" stroke-width="2" fill="#5e5e5e"/><path d="M1070 357.5V220" stroke="#5e5e5e" stroke-width="2" fill="none"/><path d="M1071 358.5h-2v-1.03h2z" fill="#5e5e5e"/><path d="M1070 204.74l4.64 14.26h-9.28z" stroke="#5e5e5e" stroke-width="2" fill="#5e5e5e"/><path d="M1070 597.5V460" stroke="#5e5e5e" stroke-width="2" fill="none"/><path d="M1071 598.5h-2v-1.03h2z" fill="#5e5e5e"/><path d="M1070 444.74l4.64 14.26h-9.28z" stroke="#5e5e5e" stroke-width="2" fill="#5e5e5e"/><path d="M1069.06 598.14l-9.96-3.88-12.22-4.16-13.94-4.1-16.27-4.07-19.74-4.05-25.72-4.16-42.23-4.96-105.25-10.53-19.84-3.2-14.28-2.94-11.2-2.8-9.2-2.7-7.76-2.66-6.7-2.6-5.87-2.56-5.2-2.55-4.68-2.53-4.23-2.52-3.85-2.52-3.53-2.53-3.26-2.55-3.02-2.57-2.8-2.6-2.63-2.63-2.47-2.7-2.3-2.75-2.18-2.83-2.05-2.92-1.93-3-1.83-3.13-1.72-3.24-1.62-3.4-1.53-3.55-1.42-3.76-1.32-4-1.2-4.22-1.1-4.53-.96-4.88-.8-5.27-.2-1.64M1069.04 598.13l.96.37" stroke="#5e5e5e" stroke-width="2" fill="none"/><path d="M690.2 444.73l5.45 13.97-9.26.54z" stroke="#5e5e5e" stroke-width="2" fill="#5e5e5e"/><path d="M1070.85 597.97l3.1-1.92 4.25-2.4 4.64-2.36 5.14-2.36 5.76-2.35 6.6-2.4 7.76-2.42 9.53-2.55 12.52-2.8 19.26-3.43 131.36-19.67 3.24-.66 15.6-3.56 15.2-4.15 14.66-4.67 13.95-5.1 13.1-5.4 12.08-5.6 11-5.67 9.9-5.62 8.78-5.5 7.7-5.28 6.7-5.02 5.8-4.73 4.97-4.43 4.26-4.13 3.63-3.84 3.1-3.55 2.65-3.3 2.26-3.05 1.9-2.84 1.64-2.64 1.38-2.48 1.17-2.32.2-.43" stroke="#5e5e5e" stroke-width="2" fill="none"/><path d="M1071.2 598.5h-3.1l2.25-1.4z" fill="#5e5e5e"/><path d="M1449.23 444.64l1.1 14.96-9-2.2z" stroke="#5e5e5e" stroke-width="2" fill="#5e5e5e"/><path d="M690 597.5V460" stroke="#5e5e5e" stroke-width="2" fill="none"/><path d="M691 598.5h-2v-1.03h2z" fill="#5e5e5e"/><path d="M690 444.74l4.64 14.26h-9.28z" stroke="#5e5e5e" stroke-width="2" fill="#5e5e5e"/><path d="M1450 597.5V460" stroke="#5e5e5e" stroke-width="2" fill="none"/><path d="M1451 598.5h-2v-1.03h2z" fill="#5e5e5e"/><path d="M1450 444.74l4.64 14.26h-9.28z" stroke="#5e5e5e" stroke-width="2" fill="#5e5e5e"/><path d="M690.02 597.5l.06-1 .1-1 .15-.98.2-.98.22-.98.27-.98.33-1 .37-1 .43-1 .5-1.05.54-1.07.63-1.1.7-1.12.82-1.16.93-1.22 1.05-1.27 1.2-1.35 1.4-1.4 1.58-1.5 1.87-1.6 2.18-1.73 2.57-1.86 3.07-2.04 3.7-2.25 4.58-2.5 5.7-2.84 7.33-3.25 9.68-3.82 13.36-4.63 19.8-5.95 34.53-8.77 174.78-38.98 19.8-5.95 13.37-4.63 9.67-3.82 7.3-3.25 5.72-2.83 4.57-2.5 3.7-2.26 3.08-2.04 2.57-1.86 2.18-1.72 1.86-1.6 1.58-1.5 1.4-1.4 1.2-1.35.8-.98" stroke="#5e5e5e" stroke-width="2" fill="none"/><path d="M691.02 597.5l-.02 1h-2l.02-1.05z" fill="#5e5e5e"/><path d="M1068.84 444.52l-.8 14.98-8.65-3.33z" stroke="#5e5e5e" stroke-width="2" fill="#5e5e5e"/><path d="M690.06 597.5v-.03l.05-.34.08-.34.08-.34.1-.34.1-.33.13-.35.13-.35.17-.35.18-.35.2-.37.25-.37.27-.4.3-.4.35-.4.4-.45.45-.45.5-.48.6-.5.7-.56.8-.57.95-.63 1.14-.7 1.35-.74 1.67-.83 2.07-.92 2.6-1.02 3.37-1.17 4.48-1.33 6.14-1.57 8.82-1.87 13.53-2.26 22.98-2.85 48.58-3.92 341.07-18.27 52.8-6.54 44.4-7.4 36.77-7.74 30.12-7.65 24.4-7.3 19.7-6.8 15.82-6.2 12.72-5.64 10.25-5.05 8.3-4.53 6.74-4.06 5.5-3.64 4.55-3.28 3.76-2.97 3.14-2.68 2.62-2.45 2.2-2.24 1.87-2.07 1.6-1.9 1.34-1.77.53-.78" stroke="#5e5e5e" stroke-width="2" fill="none"/><path d="M691.02 597.5l-.02 1h-2l.02-1.05z" fill="#5e5e5e"/><path d="M1448.9 444.54l-.5 15-8.72-3.16z" stroke="#5e5e5e" stroke-width="2" fill="#5e5e5e"/><path d="M1449.98 597.5l-.06-1-.1-1-.15-.98-.2-.98-.22-.98-.27-.98-.33-1-.37-1-.43-1-.5-1.05-.54-1.07-.63-1.1-.7-1.12-.82-1.16-.93-1.22-1.05-1.27-1.2-1.35-1.4-1.4-1.58-1.5-1.87-1.6-2.18-1.73-2.57-1.86-3.07-2.04-3.7-2.25-4.58-2.5-5.7-2.84-7.33-3.25-9.68-3.82-13.36-4.63-19.8-5.95-34.53-8.77-174.78-38.98-19.8-5.95-13.37-4.63-9.67-3.82-7.3-3.25-5.72-2.83-4.57-2.5-3.7-2.26-3.08-2.04-2.57-1.86-2.18-1.72-1.86-1.6-1.58-1.5-1.4-1.4-1.2-1.35-.8-.98" stroke="#5e5e5e" stroke-width="2" fill="none"/><path d="M1451 598.5h-2l-.02-1 2-.05z" fill="#5e5e5e"/><path d="M1071.16 444.52l9.45 11.65-8.64 3.33z" stroke="#5e5e5e" stroke-width="2" fill="#5e5e5e"/><path d="M1449.96 597.5l-.05-.45-.06-.46-.1-.47-.1-.45-.1-.44-.16-.44-.16-.45-.2-.44-.2-.43-.23-.45-.27-.45-.3-.46-.32-.46-.36-.48-.4-.5-.46-.5-.52-.53-.58-.54-.66-.6-.76-.58-.87-.64-1-.66-1.2-.72-1.38-.76-1.66-.82-2-.9-2.46-.96-3.1-1.07-3.95-1.2-5.23-1.34-7.2-1.52-10.45-1.75-16.74-2.1-32.74-2.65-286-15.52-66.95-8.35-67.28-11.24-60.1-12.63-48.05-12.2-35.58-10.62-25.42-8.76-18.04-7.1-12.95-5.7-9.45-4.67-7.02-3.83-5.33-3.2-4.12-2.73-3.2-2.34-2.58-2.03-2.07-1.77-1.03-.96" stroke="#5e5e5e" stroke-width="2" fill="none"/><path d="M1451 598.5h-2l-.02-1 2-.05z" fill="#5e5e5e"/><path d="M691.6 444.32l11.02 10.16-8.08 4.55z" stroke="#5e5e5e" stroke-width="2" fill="#5e5e5e"/><path d="M590.02 802.5l.03-1.28.13-2.18.22-2.1.3-2 .38-1.97.44-1.9.52-1.88.6-1.84.68-1.82.76-1.8.84-1.8.95-1.8 1.05-1.83 1.17-1.84 1.3-1.9 1.48-1.93 1.67-2.02 1.9-2.1 2.2-2.24 2.57-2.42 3.1-2.66 3.84-3.04 5.12-3.7 8.25-5.47 29.2-18.4 5.1-3.7 3.86-3.05 3.08-2.66 2.57-2.42 2.2-2.24 1.9-2.1 1.67-2.03 1.47-1.94 1.3-1.9 1.18-1.84 1.05-1.83.95-1.8.84-1.8.7-1.7" stroke="#5e5e5e" stroke-width="2" fill="none"/><path d="M591.02 802.5l-.02 1h-2l.02-1.05z" fill="#5e5e5e"/><path d="M689.4 684.68l1.95 14.87-9.1-1.7z" stroke="#5e5e5e" stroke-width="2" fill="#5e5e5e"/><path d="M789.98 802.5l-.03-1.28-.13-2.18-.22-2.1-.3-2-.38-1.97-.44-1.9-.52-1.88-.6-1.84-.68-1.82-.76-1.8-.84-1.8-.95-1.8-1.05-1.83-1.17-1.84-1.3-1.9-1.48-1.93-1.67-2.02-1.9-2.1-2.2-2.24-2.57-2.42-3.1-2.66-3.84-3.04-5.12-3.7-8.25-5.47-29.2-18.4-5.1-3.7-3.86-3.05-3.08-2.66-2.57-2.42-2.2-2.24-1.9-2.1-1.67-2.03-1.47-1.94-1.3-1.9-1.18-1.84-1.05-1.83-.95-1.8-.84-1.8-.7-1.7" stroke="#5e5e5e" stroke-width="2" fill="none"/><path d="M791 803.5h-2l-.02-1 2-.05z" fill="#5e5e5e"/><path d="M690.6 684.68l7.16 13.18-9.1 1.7z" stroke="#5e5e5e" stroke-width="2" fill="#5e5e5e"/><path d="M970.02 802.5l.03-1.28.13-2.18.22-2.1.3-2 .38-1.97.44-1.9.52-1.88.6-1.84.68-1.82.76-1.8.84-1.8.95-1.8 1.05-1.83 1.17-1.84 1.3-1.9 1.48-1.93 1.67-2.02 1.9-2.1 2.2-2.24 2.57-2.42 3.1-2.66 3.84-3.04 5.12-3.7 8.25-5.47 29.2-18.4 5.1-3.7 3.86-3.05 3.08-2.66 2.57-2.42 2.2-2.24 1.9-2.1 1.67-2.03 1.47-1.94 1.3-1.9 1.18-1.84 1.05-1.83.95-1.8.84-1.8.7-1.7" stroke="#5e5e5e" stroke-width="2" fill="none"/><path d="M971.02 802.5l-.02 1h-2l.02-1.05z" fill="#5e5e5e"/><path d="M1069.4 684.68l1.95 14.87-9.1-1.7z" stroke="#5e5e5e" stroke-width="2" fill="#5e5e5e"/><path d="M1169.98 802.5l-.03-1.28-.13-2.18-.22-2.1-.3-2-.38-1.97-.44-1.9-.52-1.88-.6-1.84-.68-1.82-.76-1.8-.84-1.8-.95-1.8-1.05-1.83-1.17-1.84-1.3-1.9-1.48-1.93-1.67-2.02-1.9-2.1-2.2-2.24-2.57-2.42-3.1-2.66-3.84-3.04-5.12-3.7-8.25-5.47-29.2-18.4-5.1-3.7-3.86-3.05-3.08-2.66-2.57-2.42-2.2-2.24-1.9-2.1-1.67-2.03-1.47-1.94-1.3-1.9-1.18-1.84-1.05-1.83-.95-1.8-.84-1.8-.7-1.7" stroke="#5e5e5e" stroke-width="2" fill="none"/><path d="M1171 803.5h-2l-.02-1 2-.05z" fill="#5e5e5e"/><path d="M1070.6 684.68l7.16 13.18-9.1 1.7z" stroke="#5e5e5e" stroke-width="2" fill="#5e5e5e"/><path d="M1350.02 802.5l.03-1.28.13-2.18.22-2.1.3-2 .38-1.97.44-1.9.52-1.88.6-1.84.68-1.82.76-1.8.84-1.8.95-1.8 1.05-1.83 1.17-1.84 1.3-1.9 1.48-1.93 1.67-2.02 1.9-2.1 2.2-2.24 2.57-2.42 3.1-2.66 3.84-3.04 5.12-3.7 8.25-5.47 29.2-18.4 5.1-3.7 3.86-3.05 3.08-2.66 2.57-2.42 2.2-2.24 1.9-2.1 1.67-2.03 1.47-1.94 1.3-1.9 1.18-1.84 1.05-1.83.95-1.8.84-1.8.7-1.7" stroke="#5e5e5e" stroke-width="2" fill="none"/><path d="M1351.02 802.5l-.02 1h-2l.02-1.05z" fill="#5e5e5e"/><path d="M1449.4 684.68l1.95 14.87-9.1-1.7z" stroke="#5e5e5e" stroke-width="2" fill="#5e5e5e"/><path d="M1549.98 802.5l-.03-1.28-.13-2.18-.22-2.1-.3-2-.38-1.97-.44-1.9-.52-1.88-.6-1.84-.68-1.82-.76-1.8-.84-1.8-.95-1.8-1.05-1.83-1.17-1.84-1.3-1.9-1.48-1.93-1.67-2.02-1.9-2.1-2.2-2.24-2.57-2.42-3.1-2.66-3.84-3.04-5.12-3.7-8.25-5.47-29.2-18.4-5.1-3.7-3.86-3.05-3.08-2.66-2.57-2.42-2.2-2.24-1.9-2.1-1.67-2.03-1.47-1.94-1.3-1.9-1.18-1.84-1.05-1.83-.95-1.8-.84-1.8-.7-1.7" stroke="#5e5e5e" stroke-width="2" fill="none"/><path d="M1551 803.5h-2l-.02-1 2-.05z" fill="#5e5e5e"/><path d="M1450.6 684.68l7.16 13.18-9.1 1.7z" stroke="#5e5e5e" stroke-width="2" fill="#5e5e5e"/><path d="M620 909.33c0-3.3 2.7-6 6-6h128c3.3 0 6 2.7 6 6v68c0 3.32-2.7 6-6 6H626c-3.3 0-6-2.68-6-6z" stroke="#5e5e5e" stroke-width="3" fill="#fff"/><use xlink:href="#i" transform="matrix(1,0,0,1,625,908.3333333333333) translate(19.123456790123463 38.28472222222222)"/><path d="M1000 909.33c0-3.3 2.7-6 6-6h128c3.3 0 6 2.7 6 6v68c0 3.32-2.7 6-6 6h-128c-3.3 0-6-2.68-6-6z" stroke="#5e5e5e" stroke-width="3" fill="#fff"/><use xlink:href="#i" transform="matrix(1,0,0,1,1005,908.3333333333333) translate(19.123456790123463 38.28472222222222)"/><path d="M1380 909.33c0-3.3 2.7-6 6-6h128c3.3 0 6 2.7 6 6v68c0 3.32-2.7 6-6 6h-128c-3.3 0-6-2.68-6-6z" stroke="#5e5e5e" stroke-width="3" fill="#fff"/><use xlink:href="#i" transform="matrix(1,0,0,1,1385,908.3333333333333) translate(19.123456790123463 38.28472222222222)"/><path d="M1450 900.83V700" stroke="#5e5e5e" stroke-width="2" fill="none"/><path d="M1451 901.83h-2v-1.03h2z" fill="#5e5e5e"/><path d="M1450 684.74l4.64 14.26h-9.28z" stroke="#5e5e5e" stroke-width="2" fill="#5e5e5e"/><path d="M1070 900.83V700" stroke="#5e5e5e" stroke-width="2" fill="none"/><path d="M1071 901.83h-2v-1.03h2z" fill="#5e5e5e"/><path d="M1070 684.74l4.64 14.26h-9.28z" stroke="#5e5e5e" stroke-width="2" fill="#5e5e5e"/><path d="M690 900.83V700" stroke="#5e5e5e" stroke-width="2" fill="none"/><path d="M691 901.83h-2v-1.03h2z" fill="#5e5e5e"/><path d="M690 684.74l4.64 14.26h-9.28z" stroke="#5e5e5e" stroke-width="2" fill="#5e5e5e"/><path d="M551.02 1197.5l.78-38.13 2.2-35.24 3.8-35.9 7.44-49.63 21.85-133.83" stroke="#5e5e5e" stroke-width="2" fill="none"/><path d="M552.02 1197.5l-.02 1h-2l.02-1.05z" fill="#5e5e5e"/><path d="M589.5 889.7l2.33 14.8-9.16-1.44z" stroke="#5e5e5e" stroke-width="2" fill="#5e5e5e"/><path d="M619.98 1077.5l-.32-16.08-.86-13.76-1.22-11.63-1.52-10.35-1.87-9.78-2.4-10.14-3.87-13.76-9.74-32.76-2.4-10.14-1.86-9.78-1.52-10.35-1.22-11.63-.77-12.34" stroke="#5e5e5e" stroke-width="2" fill="none"/><path d="M621 1078.5h-2l-.02-1 2-.05z" fill="#5e5e5e"/><path d="M590.08 889.74l4.96 14.15-9.27.2z" stroke="#5e5e5e" stroke-width="2" fill="#5e5e5e"/><path d="M480.02 1077.5l.14-6.92.44-7.03.67-6.34.85-5.78 1.02-5.34 1.16-4.98 1.32-4.7 1.45-4.5 1.6-4.3 1.78-4.22 1.96-4.16 2.2-4.17 2.44-4.24 2.8-4.4 3.28-4.72 4.02-5.3 5.35-6.44 9.32-10.3 28.64-30.72 7.65-9.24 6.36-8.35 5.63-8.1 5.16-8.14 4.84-8.4 1.85-3.55" stroke="#5e5e5e" stroke-width="2" fill="none"/><path d="M481.02 1077.5l-.02 1h-2l.02-1.05z" fill="#5e5e5e"/><path d="M588.6 889.4l-2.04 14.88-8.35-4.04z" stroke="#5e5e5e" stroke-width="2" fill="#5e5e5e"/><path d="M620.38 1077.57l6.1-14.68 4.23-8.8 3.1-5.64 2.44-3.92 2.03-2.92 1.77-2.27 1.6-1.84 1.5-1.55 1.48-1.36 1.5-1.26 1.63-1.2 2-1.34 10.96-6.6 2.1-1.58 2.07-1.7 2.13-2 2.32-2.38 2.62-3 3.07-3.95 3.8-5.45 2.02-3.26M620.4 1077.55l-.4.94" stroke="#5e5e5e" stroke-width="2" fill="none"/><path d="M688.4 987.64l-3.06 14.7-8.05-4.6z" stroke="#5e5e5e" stroke-width="2" fill="#5e5e5e"/><path d="M691 1197.5l-.9-194.16" stroke="#5e5e5e" stroke-width="2" fill="none"/><path d="M692 1198.5h-2v-1.02h2z" fill="#5e5e5e"/><path d="M690.02 988.07l4.7 14.24-9.27.06z" stroke="#5e5e5e" stroke-width="2" fill="#5e5e5e"/><path d="M759.97 1077.5l-.03-1.43-.2-2.28-.28-2.17-.4-2.06-.47-2-.6-1.93-.68-1.9-.8-1.87-.9-1.87-1.05-1.88-1.2-1.9-1.4-1.98-1.6-2.05-1.93-2.2-2.33-2.37-2.9-2.68-3.97-3.26-6.54-4.82-21.93-15.24-3.96-3.26-2.9-2.68-2.34-2.38-1.92-2.18-1.62-2.05-1.38-1.98-1.2-1.9-1.05-1.9-.3-.62" stroke="#5e5e5e" stroke-width="2" fill="none"/><path d="M761 1078.5h-2l-.03-1 2-.05z" fill="#5e5e5e"/><path d="M690.72 988l7.7 12.86-9.04 2.07z" stroke="#5e5e5e" stroke-width="2" fill="#5e5e5e"/><path d="M760.18 1077.5l5.7-31.98 19-91.76 2.42-17.8 1.6-17.23.67-13.74M760.18 1077.5l-.18 1" stroke="#5e5e5e" stroke-width="2" fill="none"/><path d="M789.93 889.74l4.3 14.36-9.27-.2z" stroke="#5e5e5e" stroke-width="2" fill="#5e5e5e"/><path d="M760.42 1077.6l.7-1.5 1.26-2.45 1.43-2.52 1.64-2.6 1.85-2.7 2.1-2.82 2.44-2.96 2.8-3.15 3.3-3.4 3.86-3.66 4.63-4.05 5.7-4.56 7.2-5.3 9.62-6.45 14.57-8.9 84-47.48 10.56-7.1 8.04-5.9 6.44-5.16 5.32-4.63 4.48-4.26 3.83-3.95 3.3-3.72 2.9-3.54 2.53-3.37 2.24-3.27 1.97-3.15 1.76-3.08 1.55-3 1.37-2.97 1.22-2.94 1.06-2.92.93-2.9.67-2.47" stroke="#5e5e5e" stroke-width="2" fill="none"/><path d="M761.34 1078l-.24.5h-2.2l.63-1.35z" fill="#5e5e5e"/><path d="M969.6 889.7l2.82 14.74-9.2-1.15z" stroke="#5e5e5e" stroke-width="2" fill="#5e5e5e"/><path d="M831.1 1197.5l3.23-37.56 1.15-26.14.03-19.65-.64-15.95-1.14-13.8-1.6-12.73-2.12-12.63-3-14.06-5.64-21.82-18.53-68.45-6.7-31.64-3.07-18.3" stroke="#5e5e5e" stroke-width="2" fill="none"/><path d="M832.1 1197.56l-.1.94h-2l.1-1.1z" fill="#5e5e5e"/><path d="M790.54 889.7l6.93 13.3-9.14 1.53z" stroke="#5e5e5e" stroke-width="2" fill="#5e5e5e"/><path d="M971 1197.5V905" stroke="#5e5e5e" stroke-width="2" fill="none"/><path d="M972 1198.5h-2v-1.03h2z" fill="#5e5e5e"/><path d="M971 889.74l4.64 14.26h-9.28z" stroke="#5e5e5e" stroke-width="2" fill="#5e5e5e"/><path d="M1110.96 1197.5l-2.14-56.2-2.17-26.67-1.98-15.92-1.83-10.97-1.77-8.37-1.78-6.95-1.9-6.32-2.3-6.53-4.07-10.22-8.6-21.12-3.64-10.43-3.6-11.96-.77-3" stroke="#5e5e5e" stroke-width="2" fill="none"/><path d="M1112 1198.5h-2l-.04-1 2-.07z" fill="#5e5e5e"/><path d="M1070.78 987.98l7.9 12.74-9 2.22z" stroke="#5e5e5e" stroke-width="2" fill="#5e5e5e"/><path d="M1111.02 1197.5l.44-27.58 1.3-22.26 1.82-18.13 2.2-15.34 2.52-13.52 2.85-12.4 3.3-11.98 4.07-12.65 6.3-17.08 16.7-42.95 3.92-12.23 3.16-11.5 2.7-11.74 2.38-12.7 2.05-14.3 1.68-16.74 1.15-19.42M1111.02 1197.46l-.02 1.03" stroke="#5e5e5e" stroke-width="2" fill="none"/><path d="M1169.92 889.74l4.28 14.37-9.26-.22z" stroke="#5e5e5e" stroke-width="2" fill="#5e5e5e"/><path d="M1039.86 1077.5l-2.1-15.3-2.27-10.8-2.22-7.68-2.14-5.8-2.06-4.58-2.02-3.74-2.02-3.16-2.03-2.73-2.1-2.43-2.2-2.23-2.45-2.12-2.8-2.1-3.54-2.28-6.13-3.32-1.1-.55-1.5-.78-1.2-.7-1-.63-.87-.6-.8-.62-.74-.6-.7-.62-.65-.65-.62-.67-.62-.7-.6-.78-.63-.84-.62-.93-.62-1.05-.66-1.2-.7-1.4-.75-1.7-.83-2.08-.94-2.7-1.13-3.73-1.45-5.67-2.2-10.4-6.62-40.78-3.52-24.04" stroke="#5e5e5e" stroke-width="2" fill="none"/><path d="M1041 1078.5h-2l-.13-.88 1.98-.27z" fill="#5e5e5e"/><path d="M970.47 889.7l6.65 13.45-9.17 1.34z" stroke="#5e5e5e" stroke-width="2" fill="#5e5e5e"/><path d="M900.24 1077.53l3.43-13.78 3.34-11.34 3.08-9.02 2.88-7.4 2.72-6.24 2.64-5.4 2.6-4.8 2.6-4.36 2.73-4.16 3-4.18 3.72-4.75 14.74-17.63 2.2-3.07 1.87-2.84 1.67-2.8 1.55-2.87 1.48-3.04 1.44-3.3 1.42-3.66 1.42-4.15 1.42-4.84 1.44-5.77 1.46-7.13 1.48-9.1 1.45-12.2 1.13-14.72" stroke="#5e5e5e" stroke-width="2" fill="none"/><path d="M901.22 1077.74l-.2.76h-2.05l.3-1.24z" fill="#5e5e5e"/><path d="M969.85 889.73l3.96 14.47-9.25-.44z" stroke="#5e5e5e" stroke-width="2" fill="#5e5e5e"/><path d="M1459.98 1077.5l-.33-13.2-.8-10.17-1.2-8.78-6.5-36.15-.46-5.88" stroke="#5e5e5e" stroke-width="2" fill="none"/><path d="M1461 1078.5h-2l-.03-1 2-.05z" fill="#5e5e5e"/><path d="M1450.12 988.07l5.17 14.08-9.28.35z" stroke="#5e5e5e" stroke-width="2" fill="#5e5e5e"/><path d="M1320.02 1077.5l.32-16.08.86-13.76 1.22-11.63 1.52-10.35 1.87-9.78 2.4-10.14 3.87-13.76 9.74-32.76 2.4-10.14 1.86-9.78 1.52-10.35 1.22-11.63.77-12.34" stroke="#5e5e5e" stroke-width="2" fill="none"/><path d="M1321.02 1077.5l-.02 1h-2l.02-1.05z" fill="#5e5e5e"/><path d="M1349.92 889.74l4.3 14.37-9.26-.2z" stroke="#5e5e5e" stroke-width="2" fill="#5e5e5e"/><path d="M1320.02 1077.5v-.05l.07-1 .1-1 .14-1 .18-.95.22-.96.27-.95.32-.95.35-.95.4-.95.45-.96.5-.98.58-1 .64-1 .73-1.05.8-1.07.93-1.1 1.04-1.17 1.2-1.2 1.36-1.3 1.57-1.35 1.85-1.46 2.18-1.58 2.6-1.73 3.2-1.93 4.04-2.2 5.3-2.64 7.6-3.37 14.16-5.55 38.55-14.42 7.6-3.37 5.3-2.62 4.04-2.22 3.2-1.93 2.6-1.74 2.18-1.6 1.85-1.45 1.57-1.36 1.37-1.3 1.2-1.2 1.03-1.16.06-.07" stroke="#5e5e5e" stroke-width="2" fill="none"/><path d="M1321.02 1077.5l-.02 1h-2l.02-1.05z" fill="#5e5e5e"/><path d="M1448.8 987.84l-.9 14.98-8.63-3.4z" stroke="#5e5e5e" stroke-width="2" fill="#5e5e5e"/><path d="M1179.98 1077.5l-.78-41.32-1.83-29.25-6.57-78.1-.45-23.83" stroke="#5e5e5e" stroke-width="2" fill="none"/><path d="M1181 1078.5h-2l-.02-1 2-.05z" fill="#5e5e5e"/><path d="M1170.06 889.74l4.9 14.17-9.26.2z" stroke="#5e5e5e" stroke-width="2" fill="#5e5e5e"/><path d="M1179.98 1077.5v-.34l-.1-1.3-.14-1.24-.2-1.23-.25-1.2-.3-1.2-.37-1.17-.4-1.17-.5-1.17-.53-1.18-.6-1.2-.7-1.2-.8-1.22-.88-1.26-1-1.3-1.17-1.36-1.32-1.42-1.53-1.5-1.8-1.6-2.1-1.72-2.54-1.9-3.14-2.1-4-2.43-5.4-2.95-8.37-4.1-42.07-18.86-5.4-2.98-4-2.43-3.14-2.12-2.54-1.9-2.1-1.7-1.8-1.6-1.53-1.5-1.32-1.42-1.16-1.36-.92-1.17" stroke="#5e5e5e" stroke-width="2" fill="none"/><path d="M1181 1078.5h-2l-.02-1 2-.05z" fill="#5e5e5e"/><path d="M1071.05 987.9l9 12-8.77 3z" stroke="#5e5e5e" stroke-width="2" fill="#5e5e5e"/><path d="M1599.98 1077.5l-.2-9.74-.58-9.34-.87-8.28-1.1-7.5-1.32-6.92-1.52-6.5-1.75-6.3-2.03-6.2-2.4-6.44-2.98-7.1-4.46-9.44-15.98-31.9-3-7.12-2.38-6.43-2.03-6.23-1.75-6.28-1.53-6.52-1.32-6.92-1.1-7.5-.88-8.28-.1-1.6" stroke="#5e5e5e" stroke-width="2" fill="none"/><path d="M1601 1078.5h-2l-.02-1 2-.05z" fill="#5e5e5e"/><path d="M1550.12 889.73l5.18 14.08-9.27.37z" stroke="#5e5e5e" stroke-width="2" fill="#5e5e5e"/><path d="M1670.98 1197.5l-.53-27.05-1.3-20.72-1.7-16.36-1.98-13.52-2.2-11.53-2.36-10.07-2.5-8.98-2.63-8.14-2.8-7.5-2.9-6.96-3.1-6.57-3.27-6.25-3.48-6-3.7-5.86-4-5.74-3.2-4.26-5.18-6.4-8.65-9.76-28.37-30.86-6.02-7.42-4.67-6.3-3.9-5.7-3.33-5.4-2.94-5.2-2.6-5.12-2.32-5.08-2.1-5.1-1.85-5.17-1.67-5.3-1.46-5.47-1.27-5.66-1.06-5.93-.86-6.25-.08-.93" stroke="#5e5e5e" stroke-width="2" fill="none"/><path d="M1672 1198.5h-2l-.02-1 2-.05z" fill="#5e5e5e"/><path d="M1550.17 889.73l5.4 14-9.26.5z" stroke="#5e5e5e" stroke-width="2" fill="#5e5e5e"/><path d="M1250.98 1197.5l-.34-16.5-.95-15.2-1.42-13.5-1.8-12.22-2.15-11.26-2.48-10.6L1239 1108l-3.3-10.14-3.9-10.5-4.9-11.63-7.36-15.56-25.44-50.9-4.9-11.64-3.9-10.5L1182 977l-2.85-10.22-2.48-10.6-2.15-11.26-1.8-12.2-1.4-13.5-.9-14.22" stroke="#5e5e5e" stroke-width="2" fill="none"/><path d="M1252 1198.5h-2l-.02-1 2-.05z" fill="#5e5e5e"/><path d="M1170.07 889.74l4.96 14.15-9.27.2z" stroke="#5e5e5e" stroke-width="2" fill="#5e5e5e"/><path d="M1390.98 1197.5l-.63-31.32-1.56-25.22-2.22-21.07-2.8-18.98-3.63-19.04-6.34-26.7-12.95-52.06-3.63-19.04-2.8-18.97-2.2-21.06-1.57-25.22-.28-13.82" stroke="#5e5e5e" stroke-width="2" fill="none"/><path d="M1392 1198.5h-2l-.02-1 2-.05z" fill="#5e5e5e"/><path d="M1350.06 889.74l4.92 14.17-9.26.2z" stroke="#5e5e5e" stroke-width="2" fill="#5e5e5e"/><path d="M1391.02 1197.5l.45-23.32 1-16.08 1.24-11.97 1.43-9.67 1.58-8.3 1.8-7.6 2.05-7.37 2.53-7.78 3.5-9.4 35-85.55 2.64-8.06" stroke="#5e5e5e" stroke-width="2" fill="none"/><path d="M1392.02 1197.5l-.02 1h-2l.02-1.05z" fill="#5e5e5e"/><path d="M1449 987.9l-.07 15-8.8-2.9z" stroke="#5e5e5e" stroke-width="2" fill="#5e5e5e"/><path d="M1531.02 1197.5l1.14-59.98 2.6-41.8 14.08-148.24.8-42.48" stroke="#5e5e5e" stroke-width="2" fill="none"/><path d="M1532.02 1197.5l-.02 1h-2l.02-1.05z" fill="#5e5e5e"/><path d="M1549.94 889.74l4.36 14.35-9.27-.2z" stroke="#5e5e5e" stroke-width="2" fill="#5e5e5e"/><path d="M1500 64.33c0-3.3 2.7-6 6-6h228c3.3 0 6 2.7 6 6v51.34c0 3.3-2.7 6-6 6h-228c-3.3 0-6-2.7-6-6z" stroke="#000" stroke-opacity="0" stroke-width="3" fill="#fff" fill-opacity="0"/><g><use xlink:href="#ah" transform="matrix(1,0,0,1,1505,63.333333333333336) translate(66.38888888888889 17.77777777777778)"/><use xlink:href="#ai" transform="matrix(1,0,0,1,1505,63.333333333333336) translate(5.370370370370367 44.44444444444444)"/><use xlink:href="#aj" transform="matrix(1,0,0,1,1505,63.333333333333336) translate(142.0987654320988 44.44444444444444)"/></g><defs><path fill="#333" d="M240 0l2-218c-23 76-54 145-80 218h-23L58-218 59 0H30v-248h44l77 211c21-75 51-140 76-211h43V0h-30" id="ak"/><path fill="#333" d="M141-36C126-15 110 5 73 4 37 3 15-17 15-53c-1-64 63-63 125-63 3-35-9-54-41-54-24 1-41 7-42 31l-33-3c5-37 33-52 76-52 45 0 72 20 72 64v82c-1 20 7 32 28 27v20c-31 9-61-2-59-35zM48-53c0 20 12 33 32 33 41-3 63-29 60-74-43 2-92-5-92 41" id="al"/><path fill="#333" d="M135-143c-3-34-86-38-87 0 15 53 115 12 119 90S17 21 10-45l28-5c4 36 97 45 98 0-10-56-113-15-118-90-4-57 82-63 122-42 12 7 21 19 24 35" id="am"/><path fill="#333" d="M59-47c-2 24 18 29 38 22v24C64 9 27 4 27-40v-127H5v-23h24l9-43h21v43h35v23H59v120" id="an"/><path fill="#333" d="M100-194c63 0 86 42 84 106H49c0 40 14 67 53 68 26 1 43-12 49-29l28 8c-11 28-37 45-77 45C44 4 14-33 15-96c1-61 26-98 85-98zm52 81c6-60-76-77-97-28-3 7-6 17-6 28h103" id="ao"/><path fill="#333" d="M114-163C36-179 61-72 57 0H25l-1-190h30c1 12-1 29 2 39 6-27 23-49 58-41v29" id="ap"/><g id="a"><use transform="matrix(0.06172839506172839,0,0,0.06172839506172839,0,0)" xlink:href="#ak"/><use transform="matrix(0.06172839506172839,0,0,0.06172839506172839,18.456790123456788,0)" xlink:href="#al"/><use transform="matrix(0.06172839506172839,0,0,0.06172839506172839,30.80246913580247,0)" xlink:href="#am"/><use transform="matrix(0.06172839506172839,0,0,0.06172839506172839,41.91358024691358,0)" xlink:href="#an"/><use transform="matrix(0.06172839506172839,0,0,0.06172839506172839,48.086419753086425,0)" xlink:href="#ao"/><use transform="matrix(0.06172839506172839,0,0,0.06172839506172839,60.4320987654321,0)" xlink:href="#ap"/></g><path fill="#333" d="M205 0l-28-72H64L36 0H1l101-248h38L239 0h-34zm-38-99l-47-123c-12 45-31 82-46 123h93" id="aq"/><path fill="#333" d="M96-169c-40 0-48 33-48 73s9 75 48 75c24 0 41-14 43-38l32 2c-6 37-31 61-74 61-59 0-76-41-82-99-10-93 101-131 147-64 4 7 5 14 7 22l-32 3c-4-21-16-35-41-35" id="ar"/><path fill="#333" d="M106-169C34-169 62-67 57 0H25v-261h32l-1 103c12-21 28-36 61-36 89 0 53 116 60 194h-32v-121c2-32-8-49-39-48" id="as"/><path fill="#333" d="M24-231v-30h32v30H24zM24 0v-190h32V0H24" id="at"/><path fill="#333" d="M84 4C-5 8 30-112 23-190h32v120c0 31 7 50 39 49 72-2 45-101 50-169h31l1 190h-30c-1-10 1-25-2-33-11 22-28 36-60 37" id="au"/><g id="b"><use transform="matrix(0.06172839506172839,0,0,0.06172839506172839,0,0)" xlink:href="#aq"/><use transform="matrix(0.06172839506172839,0,0,0.06172839506172839,14.814814814814813,0)" xlink:href="#ap"/><use transform="matrix(0.06172839506172839,0,0,0.06172839506172839,22.160493827160494,0)" xlink:href="#ar"/><use transform="matrix(0.06172839506172839,0,0,0.06172839506172839,33.27160493827161,0)" xlink:href="#as"/><use transform="matrix(0.06172839506172839,0,0,0.06172839506172839,45.617283950617285,0)" xlink:href="#at"/><use transform="matrix(0.06172839506172839,0,0,0.06172839506172839,50.49382716049383,0)" xlink:href="#an"/><use transform="matrix(0.06172839506172839,0,0,0.06172839506172839,56.66666666666667,0)" xlink:href="#ao"/><use transform="matrix(0.06172839506172839,0,0,0.06172839506172839,69.01234567901236,0)" xlink:href="#ar"/><use transform="matrix(0.06172839506172839,0,0,0.06172839506172839,80.12345679012347,0)" xlink:href="#an"/><use transform="matrix(0.06172839506172839,0,0,0.06172839506172839,86.2962962962963,0)" xlink:href="#au"/><use transform="matrix(0.06172839506172839,0,0,0.06172839506172839,98.64197530864199,0)" xlink:href="#ap"/><use transform="matrix(0.06172839506172839,0,0,0.06172839506172839,105.98765432098767,0)" xlink:href="#ao"/></g><path fill="#333" d="M185-189c-5-48-123-54-124 2 14 75 158 14 163 119 3 78-121 87-175 55-17-10-28-26-33-46l33-7c5 56 141 63 141-1 0-78-155-14-162-118-5-82 145-84 179-34 5 7 8 16 11 25" id="av"/><path fill="#333" d="M100-194c62-1 85 37 85 99 1 63-27 99-86 99S16-35 15-95c0-66 28-99 85-99zM99-20c44 1 53-31 53-75 0-43-8-75-51-75s-53 32-53 75 10 74 51 75" id="aw"/><g id="c"><use transform="matrix(0.06172839506172839,0,0,0.06172839506172839,0,0)" xlink:href="#av"/><use transform="matrix(0.06172839506172839,0,0,0.06172839506172839,14.814814814814813,0)" xlink:href="#ar"/><use transform="matrix(0.06172839506172839,0,0,0.06172839506172839,25.925925925925924,0)" xlink:href="#aw"/><use transform="matrix(0.06172839506172839,0,0,0.06172839506172839,38.2716049382716,0)" xlink:href="#ap"/><use transform="matrix(0.06172839506172839,0,0,0.06172839506172839,45.61728395061728,0)" xlink:href="#ao"/></g><path fill="#333" d="M179-190L93 31C79 59 56 82 12 73V49c39 6 53-20 64-50L1-190h34L92-34l54-156h33" id="ax"/><g id="d"><use transform="matrix(0.049382716049382706,0,0,0.049382716049382706,0,0)" xlink:href="#av"/><use transform="matrix(0.049382716049382706,0,0,0.049382716049382706,11.85185185185185,0)" xlink:href="#ao"/><use transform="matrix(0.049382716049382706,0,0,0.049382716049382706,21.728395061728392,0)" xlink:href="#ar"/><use transform="matrix(0.049382716049382706,0,0,0.049382716049382706,30.617283950617278,0)" xlink:href="#au"/><use transform="matrix(0.049382716049382706,0,0,0.049382716049382706,40.49382716049382,0)" xlink:href="#ap"/><use transform="matrix(0.049382716049382706,0,0,0.049382716049382706,46.37037037037037,0)" xlink:href="#at"/><use transform="matrix(0.049382716049382706,0,0,0.049382716049382706,50.2716049382716,0)" xlink:href="#an"/><use transform="matrix(0.049382716049382706,0,0,0.049382716049382706,55.20987654320988,0)" xlink:href="#ax"/></g><path fill="#333" d="M212-179c-10-28-35-45-73-45-59 0-87 40-87 99 0 60 29 101 89 101 43 0 62-24 78-52l27 14C228-24 195 4 139 4 59 4 22-46 18-125c-6-104 99-153 187-111 19 9 31 26 39 46" id="ay"/><path fill="#333" d="M117-194c89-4 53 116 60 194h-32v-121c0-31-8-49-39-48C34-167 62-67 57 0H25l-1-190h30c1 10-1 24 2 32 11-22 29-35 61-36" id="az"/><path fill="#333" d="M24 0v-261h32V0H24" id="aA"/><g id="e"><use transform="matrix(0.049382716049382706,0,0,0.049382716049382706,0,0)" xlink:href="#ay"/><use transform="matrix(0.049382716049382706,0,0,0.049382716049382706,12.790123456790122,0)" xlink:href="#aw"/><use transform="matrix(0.049382716049382706,0,0,0.049382716049382706,22.666666666666664,0)" xlink:href="#az"/><use transform="matrix(0.049382716049382706,0,0,0.049382716049382706,32.5432098765432,0)" xlink:href="#an"/><use transform="matrix(0.049382716049382706,0,0,0.049382716049382706,37.481481481481474,0)" xlink:href="#ap"/><use transform="matrix(0.049382716049382706,0,0,0.049382716049382706,43.35802469135802,0)" xlink:href="#aw"/><use transform="matrix(0.049382716049382706,0,0,0.049382716049382706,53.234567901234556,0)" xlink:href="#aA"/></g><path fill="#333" d="M63-220v92h138v28H63V0H30v-248h175v28H63" id="aB"/><path fill="#333" d="M210-169c-67 3-38 105-44 169h-31v-121c0-29-5-50-35-48C34-165 62-65 56 0H25l-1-190h30c1 10-1 24 2 32 10-44 99-50 107 0 11-21 27-35 58-36 85-2 47 119 55 194h-31v-121c0-29-5-49-35-48" id="aC"/><g id="f"><use transform="matrix(0.049382716049382706,0,0,0.049382716049382706,0,0)" xlink:href="#aB"/><use transform="matrix(0.049382716049382706,0,0,0.049382716049382706,10.814814814814813,0)" xlink:href="#al"/><use transform="matrix(0.049382716049382706,0,0,0.049382716049382706,20.691358024691354,0)" xlink:href="#aC"/><use transform="matrix(0.049382716049382706,0,0,0.049382716049382706,35.456790123456784,0)" xlink:href="#at"/><use transform="matrix(0.049382716049382706,0,0,0.049382716049382706,39.35802469135802,0)" xlink:href="#aA"/><use transform="matrix(0.049382716049382706,0,0,0.049382716049382706,43.25925925925925,0)" xlink:href="#ax"/></g><path fill="#333" d="M127-220V0H93v-220H8v-28h204v28h-85" id="aD"/><g id="g"><use transform="matrix(0.049382716049382706,0,0,0.049382716049382706,0,0)" xlink:href="#aD"/><use transform="matrix(0.049382716049382706,0,0,0.049382716049382706,10.172839506172838,0)" xlink:href="#ap"/><use transform="matrix(0.049382716049382706,0,0,0.049382716049382706,16.04938271604938,0)" xlink:href="#au"/><use transform="matrix(0.049382716049382706,0,0,0.049382716049382706,25.92592592592592,0)" xlink:href="#am"/><use transform="matrix(0.049382716049382706,0,0,0.049382716049382706,34.81481481481481,0)" xlink:href="#an"/></g><path fill="#333" d="M209 0H11v-25l151-195H24v-28h176v25L50-27h159V0" id="aE"/><g id="h"><use transform="matrix(0.049382716049382706,0,0,0.049382716049382706,0,0)" xlink:href="#aE"/><use transform="matrix(0.049382716049382706,0,0,0.049382716049382706,10.814814814814813,0)" xlink:href="#aw"/><use transform="matrix(0.049382716049382706,0,0,0.049382716049382706,20.691358024691354,0)" xlink:href="#az"/><use transform="matrix(0.049382716049382706,0,0,0.049382716049382706,30.567901234567895,0)" xlink:href="#ao"/></g><path fill="#333" d="M115-194c55 1 70 41 70 98S169 2 115 4C84 4 66-9 55-30l1 105H24l-1-265h31l2 30c10-21 28-34 59-34zm-8 174c40 0 45-34 45-75s-6-73-45-74c-42 0-51 32-51 76 0 43 10 73 51 73" id="aF"/><g id="i"><use transform="matrix(0.049382716049382706,0,0,0.049382716049382706,0,0)" xlink:href="#ay"/><use transform="matrix(0.049382716049382706,0,0,0.049382716049382706,12.790123456790122,0)" xlink:href="#aw"/><use transform="matrix(0.049382716049382706,0,0,0.049382716049382706,22.666666666666664,0)" xlink:href="#aC"/><use transform="matrix(0.049382716049382706,0,0,0.049382716049382706,37.432098765432094,0)" xlink:href="#aF"/><use transform="matrix(0.049382716049382706,0,0,0.049382716049382706,47.30864197530863,0)" xlink:href="#aw"/><use transform="matrix(0.049382716049382706,0,0,0.049382716049382706,57.185185185185176,0)" xlink:href="#az"/><use transform="matrix(0.049382716049382706,0,0,0.049382716049382706,67.06172839506172,0)" xlink:href="#ao"/><use transform="matrix(0.049382716049382706,0,0,0.049382716049382706,76.93827160493827,0)" xlink:href="#az"/><use transform="matrix(0.049382716049382706,0,0,0.049382716049382706,86.81481481481481,0)" xlink:href="#an"/></g><g id="j"><use transform="matrix(0.049382716049382706,0,0,0.049382716049382706,0,0)" xlink:href="#av"/><use transform="matrix(0.049382716049382706,0,0,0.049382716049382706,11.85185185185185,0)" xlink:href="#ao"/><use transform="matrix(0.049382716049382706,0,0,0.049382716049382706,21.728395061728392,0)" xlink:href="#ar"/><use transform="matrix(0.049382716049382706,0,0,0.049382716049382706,30.617283950617278,0)" xlink:href="#au"/><use transform="matrix(0.049382716049382706,0,0,0.049382716049382706,40.49382716049382,0)" xlink:href="#ap"/><use transform="matrix(0.049382716049382706,0,0,0.049382716049382706,46.37037037037037,0)" xlink:href="#at"/><use transform="matrix(0.049382716049382706,0,0,0.049382716049382706,50.2716049382716,0)" xlink:href="#an"/><use transform="matrix(0.049382716049382706,0,0,0.049382716049382706,55.20987654320988,0)" xlink:href="#ax"/></g><path fill="#333" d="M108 0H70L1-190h34L89-25l56-165h34" id="aG"/><g id="k"><use transform="matrix(0.049382716049382706,0,0,0.049382716049382706,0,0)" xlink:href="#av"/><use transform="matrix(0.049382716049382706,0,0,0.049382716049382706,11.85185185185185,0)" xlink:href="#ao"/><use transform="matrix(0.049382716049382706,0,0,0.049382716049382706,21.728395061728392,0)" xlink:href="#ap"/><use transform="matrix(0.049382716049382706,0,0,0.049382716049382706,27.604938271604933,0)" xlink:href="#aG"/><use transform="matrix(0.049382716049382706,0,0,0.049382716049382706,36.49382716049382,0)" xlink:href="#at"/><use transform="matrix(0.049382716049382706,0,0,0.049382716049382706,40.395061728395056,0)" xlink:href="#ar"/><use transform="matrix(0.049382716049382706,0,0,0.049382716049382706,49.28395061728394,0)" xlink:href="#ao"/></g><path fill="#333" d="M24 0v-248h52v208h133V0H24" id="aH"/><path fill="#333" d="M133-34C117-15 103 5 69 4 32 3 11-16 11-54c-1-60 55-63 116-61 1-26-3-47-28-47-18 1-26 9-28 27l-52-2c7-38 36-58 82-57s74 22 75 68l1 82c-1 14 12 18 25 15v27c-30 8-71 5-69-32zm-48 3c29 0 43-24 42-57-32 0-66-3-65 30 0 17 8 27 23 27" id="aI"/><path fill="#333" d="M123 10C108 53 80 86 19 72V37c35 8 53-11 59-39L3-190h52l48 148c12-52 28-100 44-148h51" id="aJ"/><path fill="#333" d="M185-48c-13 30-37 53-82 52C43 2 14-33 14-96s30-98 90-98c62 0 83 45 84 108H66c0 31 8 55 39 56 18 0 30-7 34-22zm-45-69c5-46-57-63-70-21-2 6-4 13-4 21h74" id="aK"/><path fill="#333" d="M135-150c-39-12-60 13-60 57V0H25l-1-190h47c2 13-1 29 3 40 6-28 27-53 61-41v41" id="aL"/><g id="l"><use transform="matrix(0.06172839506172839,0,0,0.06172839506172839,0,0)" xlink:href="#aH"/><use transform="matrix(0.06172839506172839,0,0,0.06172839506172839,13.518518518518517,0)" xlink:href="#aI"/><use transform="matrix(0.06172839506172839,0,0,0.06172839506172839,25.864197530864196,0)" xlink:href="#aJ"/><use transform="matrix(0.06172839506172839,0,0,0.06172839506172839,38.20987654320987,0)" xlink:href="#aK"/><use transform="matrix(0.06172839506172839,0,0,0.06172839506172839,50.55555555555555,0)" xlink:href="#aL"/><path fill="#333" d="M-1.1 1.2h67.58V3.5h-67.6z"/></g><path fill="#333" d="M139-81c0-46-55-55-73-27H18l9-140h149v37H72l-4 63c44-38 133-4 122 66C201 21 21 35 11-62l49-4c5 18 15 30 39 30 26 0 40-18 40-45" id="aM"/><g id="m"><use transform="matrix(0.06172839506172839,0,0,0.06172839506172839,0,0)" xlink:href="#aM"/><path fill="#333" d="M-1.1 1.2h20.73V3.5H-1.1z"/></g><path fill="#333" d="M169-182c-1-43-94-46-97-3 18 66 151 10 154 114 3 95-165 93-204 36-6-8-10-19-12-30l50-8c3 46 112 56 116 5-17-69-150-10-154-114-4-87 153-88 188-35 5 8 8 18 10 28" id="aN"/><path fill="#333" d="M190-63c-7 42-38 67-86 67-59 0-84-38-90-98-12-110 154-137 174-36l-49 2c-2-19-15-32-35-32-30 0-35 28-38 64-6 74 65 87 74 30" id="aO"/><path fill="#333" d="M110-194c64 0 96 36 96 99 0 64-35 99-97 99-61 0-95-36-95-99 0-62 34-99 96-99zm-1 164c35 0 45-28 45-65 0-40-10-65-43-65-34 0-45 26-45 65 0 36 10 65 43 65" id="aP"/><path fill="#333" d="M25-224v-37h50v37H25zM25 0v-190h50V0H25" id="aQ"/><path fill="#333" d="M135-194c87-1 58 113 63 194h-50c-7-57 23-157-34-157-59 0-34 97-39 157H25l-1-190h47c2 12-1 28 3 38 12-26 28-41 61-42" id="aR"/><path fill="#333" d="M195-6C206 82 75 100 31 46c-4-6-6-13-8-21l49-6c3 16 16 24 34 25 40 0 42-37 40-79-11 22-30 35-61 35-53 0-70-43-70-97 0-56 18-96 73-97 30 0 46 14 59 34l2-30h47zm-90-29c32 0 41-27 41-63 0-35-9-62-40-62-32 0-39 29-40 63 0 36 9 62 39 62" id="aS"/><g id="n"><use transform="matrix(0.06172839506172839,0,0,0.06172839506172839,0,0)" xlink:href="#aN"/><use transform="matrix(0.06172839506172839,0,0,0.06172839506172839,14.814814814814813,0)" xlink:href="#aO"/><use transform="matrix(0.06172839506172839,0,0,0.06172839506172839,27.160493827160494,0)" xlink:href="#aP"/><use transform="matrix(0.06172839506172839,0,0,0.06172839506172839,40.67901234567901,0)" xlink:href="#aL"/><use transform="matrix(0.06172839506172839,0,0,0.06172839506172839,49.32098765432099,0)" xlink:href="#aQ"/><use transform="matrix(0.06172839506172839,0,0,0.06172839506172839,55.49382716049383,0)" xlink:href="#aR"/><use transform="matrix(0.06172839506172839,0,0,0.06172839506172839,69.01234567901234,0)" xlink:href="#aS"/><path fill="#333" d="M-1.1 1.2h84.74V3.5H-1.1z"/><path fill="#333" d="M81.42 1.54h2.22v1.63h-2.22z"/></g><g id="o"><use transform="matrix(0.06172839506172839,0,0,0.06172839506172839,0,0)" xlink:href="#av"/><use transform="matrix(0.06172839506172839,0,0,0.06172839506172839,14.814814814814813,0)" xlink:href="#ao"/><use transform="matrix(0.06172839506172839,0,0,0.06172839506172839,27.160493827160494,0)" xlink:href="#ar"/><use transform="matrix(0.06172839506172839,0,0,0.06172839506172839,38.27160493827161,0)" xlink:href="#au"/><use transform="matrix(0.06172839506172839,0,0,0.06172839506172839,50.617283950617285,0)" xlink:href="#ap"/><use transform="matrix(0.06172839506172839,0,0,0.06172839506172839,57.96296296296296,0)" xlink:href="#at"/><use transform="matrix(0.06172839506172839,0,0,0.06172839506172839,62.839506172839506,0)" xlink:href="#an"/><use transform="matrix(0.06172839506172839,0,0,0.06172839506172839,69.01234567901234,0)" xlink:href="#ax"/></g><g id="p"><use transform="matrix(0.06172839506172839,0,0,0.06172839506172839,0,0)" xlink:href="#av"/><use transform="matrix(0.06172839506172839,0,0,0.06172839506172839,14.814814814814813,0)" xlink:href="#ao"/><use transform="matrix(0.06172839506172839,0,0,0.06172839506172839,27.160493827160494,0)" xlink:href="#ap"/><use transform="matrix(0.06172839506172839,0,0,0.06172839506172839,34.50617283950617,0)" xlink:href="#aG"/><use transform="matrix(0.06172839506172839,0,0,0.06172839506172839,45.61728395061728,0)" xlink:href="#at"/><use transform="matrix(0.06172839506172839,0,0,0.06172839506172839,50.49382716049382,0)" xlink:href="#ar"/><use transform="matrix(0.06172839506172839,0,0,0.06172839506172839,61.60493827160494,0)" xlink:href="#ao"/></g><g id="q"><use transform="matrix(0.06172839506172839,0,0,0.06172839506172839,0,0)" xlink:href="#at"/><use transform="matrix(0.06172839506172839,0,0,0.06172839506172839,4.876543209876543,0)" xlink:href="#aC"/><use transform="matrix(0.06172839506172839,0,0,0.06172839506172839,23.33333333333333,0)" xlink:href="#aF"/><use transform="matrix(0.06172839506172839,0,0,0.06172839506172839,35.679012345679006,0)" xlink:href="#aA"/><use transform="matrix(0.06172839506172839,0,0,0.06172839506172839,40.55555555555555,0)" xlink:href="#ao"/><use transform="matrix(0.06172839506172839,0,0,0.06172839506172839,52.90123456790123,0)" xlink:href="#aC"/><use transform="matrix(0.06172839506172839,0,0,0.06172839506172839,71.35802469135801,0)" xlink:href="#ao"/><use transform="matrix(0.06172839506172839,0,0,0.06172839506172839,83.7037037037037,0)" xlink:href="#az"/><use transform="matrix(0.06172839506172839,0,0,0.06172839506172839,96.04938271604938,0)" xlink:href="#an"/><use transform="matrix(0.06172839506172839,0,0,0.06172839506172839,102.22222222222221,0)" xlink:href="#al"/><use transform="matrix(0.06172839506172839,0,0,0.06172839506172839,114.5679012345679,0)" xlink:href="#an"/><use transform="matrix(0.06172839506172839,0,0,0.06172839506172839,120.74074074074073,0)" xlink:href="#at"/><use transform="matrix(0.06172839506172839,0,0,0.06172839506172839,125.61728395061728,0)" xlink:href="#aw"/><use transform="matrix(0.06172839506172839,0,0,0.06172839506172839,137.96296296296296,0)" xlink:href="#az"/></g><g id="r"><use transform="matrix(0.06172839506172839,0,0,0.06172839506172839,0,0)" xlink:href="#aF"/><use transform="matrix(0.06172839506172839,0,0,0.06172839506172839,12.345679012345679,0)" xlink:href="#ao"/><use transform="matrix(0.06172839506172839,0,0,0.06172839506172839,24.691358024691358,0)" xlink:href="#ap"/></g><g id="s"><use transform="matrix(0.06172839506172839,0,0,0.06172839506172839,0,0)" xlink:href="#ar"/><use transform="matrix(0.06172839506172839,0,0,0.06172839506172839,11.11111111111111,0)" xlink:href="#aw"/><use transform="matrix(0.06172839506172839,0,0,0.06172839506172839,23.45679012345679,0)" xlink:href="#aC"/><use transform="matrix(0.06172839506172839,0,0,0.06172839506172839,41.91358024691358,0)" xlink:href="#aF"/><use transform="matrix(0.06172839506172839,0,0,0.06172839506172839,54.25925925925926,0)" xlink:href="#aw"/><use transform="matrix(0.06172839506172839,0,0,0.06172839506172839,66.60493827160494,0)" xlink:href="#az"/><use transform="matrix(0.06172839506172839,0,0,0.06172839506172839,78.95061728395062,0)" xlink:href="#ao"/><use transform="matrix(0.06172839506172839,0,0,0.06172839506172839,91.2962962962963,0)" xlink:href="#az"/><use transform="matrix(0.06172839506172839,0,0,0.06172839506172839,103.64197530864199,0)" xlink:href="#an"/></g><path fill="#333" d="M165-50V0h-47v-50H5v-38l105-160h55v161h33v37h-33zm-47-37l2-116L46-87h72" id="aT"/><g id="t"><use transform="matrix(0.06172839506172839,0,0,0.06172839506172839,0,0)" xlink:href="#aT"/><path fill="#333" d="M-1.1 1.2h20.73V3.5H-1.1z"/></g><g id="u"><use transform="matrix(0.06172839506172839,0,0,0.06172839506172839,0,0)" xlink:href="#ay"/><use transform="matrix(0.06172839506172839,0,0,0.06172839506172839,15.987654320987653,0)" xlink:href="#aw"/><use transform="matrix(0.06172839506172839,0,0,0.06172839506172839,28.333333333333332,0)" xlink:href="#az"/><use transform="matrix(0.06172839506172839,0,0,0.06172839506172839,40.67901234567901,0)" xlink:href="#an"/><use transform="matrix(0.06172839506172839,0,0,0.06172839506172839,46.851851851851855,0)" xlink:href="#ap"/><use transform="matrix(0.06172839506172839,0,0,0.06172839506172839,54.19753086419753,0)" xlink:href="#aw"/><use transform="matrix(0.06172839506172839,0,0,0.06172839506172839,66.54320987654322,0)" xlink:href="#aA"/></g><path fill="#333" d="M101-234c-31-9-42 10-38 44h38v23H63V0H32v-167H5v-23h27c-7-52 17-82 69-68v24" id="aU"/><g id="v"><use transform="matrix(0.06172839506172839,0,0,0.06172839506172839,0,0)" xlink:href="#aU"/><use transform="matrix(0.06172839506172839,0,0,0.06172839506172839,6.172839506172839,0)" xlink:href="#al"/><use transform="matrix(0.06172839506172839,0,0,0.06172839506172839,18.51851851851852,0)" xlink:href="#aC"/><use transform="matrix(0.06172839506172839,0,0,0.06172839506172839,36.9753086419753,0)" xlink:href="#at"/><use transform="matrix(0.06172839506172839,0,0,0.06172839506172839,41.85185185185185,0)" xlink:href="#aA"/><use transform="matrix(0.06172839506172839,0,0,0.06172839506172839,46.72839506172839,0)" xlink:href="#ax"/></g><g id="w"><use transform="matrix(0.06172839506172839,0,0,0.06172839506172839,0,0)" xlink:href="#am"/><use transform="matrix(0.06172839506172839,0,0,0.06172839506172839,11.11111111111111,0)" xlink:href="#ar"/><use transform="matrix(0.06172839506172839,0,0,0.06172839506172839,22.22222222222222,0)" xlink:href="#aw"/><use transform="matrix(0.06172839506172839,0,0,0.06172839506172839,34.5679012345679,0)" xlink:href="#ap"/><use transform="matrix(0.06172839506172839,0,0,0.06172839506172839,41.913580246913575,0)" xlink:href="#ao"/></g><g id="x"><use transform="matrix(0.06172839506172839,0,0,0.06172839506172839,0,0)" xlink:href="#aF"/><use transform="matrix(0.06172839506172839,0,0,0.06172839506172839,12.345679012345679,0)" xlink:href="#ao"/><use transform="matrix(0.06172839506172839,0,0,0.06172839506172839,24.691358024691358,0)" xlink:href="#ap"/></g><g id="y"><use transform="matrix(0.06172839506172839,0,0,0.06172839506172839,0,0)" xlink:href="#ar"/><use transform="matrix(0.06172839506172839,0,0,0.06172839506172839,11.11111111111111,0)" xlink:href="#aw"/><use transform="matrix(0.06172839506172839,0,0,0.06172839506172839,23.45679012345679,0)" xlink:href="#aC"/><use transform="matrix(0.06172839506172839,0,0,0.06172839506172839,41.91358024691358,0)" xlink:href="#aF"/><use transform="matrix(0.06172839506172839,0,0,0.06172839506172839,54.25925925925926,0)" xlink:href="#aw"/><use transform="matrix(0.06172839506172839,0,0,0.06172839506172839,66.60493827160494,0)" xlink:href="#az"/><use transform="matrix(0.06172839506172839,0,0,0.06172839506172839,78.95061728395062,0)" xlink:href="#ao"/><use transform="matrix(0.06172839506172839,0,0,0.06172839506172839,91.2962962962963,0)" xlink:href="#az"/><use transform="matrix(0.06172839506172839,0,0,0.06172839506172839,103.64197530864199,0)" xlink:href="#an"/></g><path fill="#333" d="M87 75C49 33 22-17 22-94c0-76 28-126 65-167h31c-38 41-64 92-64 168S80 34 118 75H87" id="aV"/><g id="z"><use transform="matrix(0.06172839506172839,0,0,0.06172839506172839,0,0)" xlink:href="#aV"/><use transform="matrix(0.06172839506172839,0,0,0.06172839506172839,7.345679012345679,0)" xlink:href="#aw"/><use transform="matrix(0.06172839506172839,0,0,0.06172839506172839,19.691358024691358,0)" xlink:href="#ap"/></g><path fill="#333" d="M33-261c38 41 65 92 65 168S71 34 33 75H2C39 34 66-17 66-93S39-220 2-261h31" id="aW"/><g id="A"><use transform="matrix(0.06172839506172839,0,0,0.06172839506172839,0,0)" xlink:href="#at"/><use transform="matrix(0.06172839506172839,0,0,0.06172839506172839,4.876543209876543,0)" xlink:href="#az"/><use transform="matrix(0.06172839506172839,0,0,0.06172839506172839,17.22222222222222,0)" xlink:href="#an"/><use transform="matrix(0.06172839506172839,0,0,0.06172839506172839,23.39506172839506,0)" xlink:href="#ao"/><use transform="matrix(0.06172839506172839,0,0,0.06172839506172839,35.74074074074074,0)" xlink:href="#ap"/><use transform="matrix(0.06172839506172839,0,0,0.06172839506172839,43.08641975308642,0)" xlink:href="#aU"/><use transform="matrix(0.06172839506172839,0,0,0.06172839506172839,49.25925925925926,0)" xlink:href="#al"/><use transform="matrix(0.06172839506172839,0,0,0.06172839506172839,61.60493827160494,0)" xlink:href="#ar"/><use transform="matrix(0.06172839506172839,0,0,0.06172839506172839,72.71604938271605,0)" xlink:href="#ao"/><use transform="matrix(0.06172839506172839,0,0,0.06172839506172839,85.06172839506173,0)" xlink:href="#aW"/></g><g id="B"><use transform="matrix(0.06172839506172839,0,0,0.06172839506172839,0,0)" xlink:href="#al"/><use transform="matrix(0.06172839506172839,0,0,0.06172839506172839,12.345679012345679,0)" xlink:href="#am"/></g><path fill="#333" d="M177-190C167-65 218 103 67 71c-23-6-38-20-44-43l32-5c15 47 100 32 89-28v-30C133-14 115 1 83 1 29 1 15-40 15-95c0-56 16-97 71-98 29-1 48 16 59 35 1-10 0-23 2-32h30zM94-22c36 0 50-32 50-73 0-42-14-75-50-75-39 0-46 34-46 75s6 73 46 73" id="aX"/><g id="C"><use transform="matrix(0.06172839506172839,0,0,0.06172839506172839,0,0)" xlink:href="#al"/><use transform="matrix(0.06172839506172839,0,0,0.06172839506172839,12.345679012345679,0)" xlink:href="#aG"/><use transform="matrix(0.06172839506172839,0,0,0.06172839506172839,23.45679012345679,0)" xlink:href="#ao"/><use transform="matrix(0.06172839506172839,0,0,0.06172839506172839,35.80246913580247,0)" xlink:href="#ap"/><use transform="matrix(0.06172839506172839,0,0,0.06172839506172839,43.148148148148145,0)" xlink:href="#al"/><use transform="matrix(0.06172839506172839,0,0,0.06172839506172839,55.49382716049382,0)" xlink:href="#aX"/><use transform="matrix(0.06172839506172839,0,0,0.06172839506172839,67.8395061728395,0)" xlink:href="#ao"/><use transform="matrix(0.06172839506172839,0,0,0.06172839506172839,80.18518518518519,0)" xlink:href="#am"/></g><g id="D"><use transform="matrix(0.06172839506172839,0,0,0.06172839506172839,0,0)" xlink:href="#aU"/><use transform="matrix(0.06172839506172839,0,0,0.06172839506172839,6.172839506172839,0)" xlink:href="#ap"/><use transform="matrix(0.06172839506172839,0,0,0.06172839506172839,13.518518518518519,0)" xlink:href="#aw"/><use transform="matrix(0.06172839506172839,0,0,0.06172839506172839,25.864197530864196,0)" xlink:href="#aC"/></g><g id="E"><use transform="matrix(0.06172839506172839,0,0,0.06172839506172839,0,0)" xlink:href="#am"/><use transform="matrix(0.06172839506172839,0,0,0.06172839506172839,11.11111111111111,0)" xlink:href="#ao"/><use transform="matrix(0.06172839506172839,0,0,0.06172839506172839,23.45679012345679,0)" xlink:href="#ar"/><use transform="matrix(0.06172839506172839,0,0,0.06172839506172839,34.5679012345679,0)" xlink:href="#au"/><use transform="matrix(0.06172839506172839,0,0,0.06172839506172839,46.913580246913575,0)" xlink:href="#ap"/><use transform="matrix(0.06172839506172839,0,0,0.06172839506172839,54.25925925925925,0)" xlink:href="#at"/><use transform="matrix(0.06172839506172839,0,0,0.06172839506172839,59.1358024691358,0)" xlink:href="#an"/><use transform="matrix(0.06172839506172839,0,0,0.06172839506172839,65.30864197530863,0)" xlink:href="#ax"/></g><g id="F"><use transform="matrix(0.06172839506172839,0,0,0.06172839506172839,0,0)" xlink:href="#am"/><use transform="matrix(0.06172839506172839,0,0,0.06172839506172839,11.11111111111111,0)" xlink:href="#ao"/><use transform="matrix(0.06172839506172839,0,0,0.06172839506172839,23.45679012345679,0)" xlink:href="#ap"/><use transform="matrix(0.06172839506172839,0,0,0.06172839506172839,30.80246913580247,0)" xlink:href="#aG"/><use transform="matrix(0.06172839506172839,0,0,0.06172839506172839,41.91358024691358,0)" xlink:href="#at"/><use transform="matrix(0.06172839506172839,0,0,0.06172839506172839,46.79012345679013,0)" xlink:href="#ar"/><use transform="matrix(0.06172839506172839,0,0,0.06172839506172839,57.90123456790124,0)" xlink:href="#ao"/></g><g id="G"><use transform="matrix(0.06172839506172839,0,0,0.06172839506172839,0,0)" xlink:href="#am"/><use transform="matrix(0.06172839506172839,0,0,0.06172839506172839,11.11111111111111,0)" xlink:href="#ar"/><use transform="matrix(0.06172839506172839,0,0,0.06172839506172839,22.22222222222222,0)" xlink:href="#aw"/><use transform="matrix(0.06172839506172839,0,0,0.06172839506172839,34.5679012345679,0)" xlink:href="#ap"/><use transform="matrix(0.06172839506172839,0,0,0.06172839506172839,41.913580246913575,0)" xlink:href="#at"/><use transform="matrix(0.06172839506172839,0,0,0.06172839506172839,46.79012345679012,0)" xlink:href="#az"/><use transform="matrix(0.06172839506172839,0,0,0.06172839506172839,59.1358024691358,0)" xlink:href="#aX"/></g><path fill="#333" d="M128-127c34 4 56 21 59 58 7 91-148 94-172 28-4-9-6-17-7-26l51-5c1 24 16 35 40 36 23 0 39-12 38-36-1-31-31-36-65-34v-40c32 2 59-3 59-33 0-20-13-33-34-33s-33 13-35 32l-50-3c6-44 37-68 86-68 50 0 83 20 83 66 0 35-22 52-53 58" id="aY"/><g id="H"><use transform="matrix(0.06172839506172839,0,0,0.06172839506172839,0,0)" xlink:href="#aY"/><path fill="#333" d="M-1.1 1.2h20.73V3.5H-1.1z"/></g><g id="I"><use transform="matrix(0.06172839506172839,0,0,0.06172839506172839,0,0)" xlink:href="#aN"/><use transform="matrix(0.06172839506172839,0,0,0.06172839506172839,14.814814814814813,0)" xlink:href="#aO"/><use transform="matrix(0.06172839506172839,0,0,0.06172839506172839,27.160493827160494,0)" xlink:href="#aP"/><use transform="matrix(0.06172839506172839,0,0,0.06172839506172839,40.67901234567901,0)" xlink:href="#aL"/><use transform="matrix(0.06172839506172839,0,0,0.06172839506172839,49.32098765432099,0)" xlink:href="#aQ"/><use transform="matrix(0.06172839506172839,0,0,0.06172839506172839,55.49382716049383,0)" xlink:href="#aR"/><use transform="matrix(0.06172839506172839,0,0,0.06172839506172839,69.01234567901234,0)" xlink:href="#aS"/><path fill="#333" d="M-1.1 1.2h84.74V3.5H-1.1z"/></g><g id="J"><use transform="matrix(0.06172839506172839,0,0,0.06172839506172839,0,0)" xlink:href="#ay"/><use transform="matrix(0.06172839506172839,0,0,0.06172839506172839,15.987654320987653,0)" xlink:href="#aw"/><use transform="matrix(0.06172839506172839,0,0,0.06172839506172839,28.333333333333332,0)" xlink:href="#az"/><use transform="matrix(0.06172839506172839,0,0,0.06172839506172839,40.67901234567901,0)" xlink:href="#an"/><use transform="matrix(0.06172839506172839,0,0,0.06172839506172839,46.851851851851855,0)" xlink:href="#ap"/><use transform="matrix(0.06172839506172839,0,0,0.06172839506172839,54.19753086419753,0)" xlink:href="#aw"/><use transform="matrix(0.06172839506172839,0,0,0.06172839506172839,66.54320987654322,0)" xlink:href="#aA"/></g><g id="K"><use transform="matrix(0.06172839506172839,0,0,0.06172839506172839,0,0)" xlink:href="#aU"/><use transform="matrix(0.06172839506172839,0,0,0.06172839506172839,6.172839506172839,0)" xlink:href="#al"/><use transform="matrix(0.06172839506172839,0,0,0.06172839506172839,18.51851851851852,0)" xlink:href="#aC"/><use transform="matrix(0.06172839506172839,0,0,0.06172839506172839,36.9753086419753,0)" xlink:href="#at"/><use transform="matrix(0.06172839506172839,0,0,0.06172839506172839,41.85185185185185,0)" xlink:href="#aA"/><use transform="matrix(0.06172839506172839,0,0,0.06172839506172839,46.72839506172839,0)" xlink:href="#ax"/></g><g id="L"><use transform="matrix(0.06172839506172839,0,0,0.06172839506172839,0,0)" xlink:href="#am"/><use transform="matrix(0.06172839506172839,0,0,0.06172839506172839,11.11111111111111,0)" xlink:href="#ar"/><use transform="matrix(0.06172839506172839,0,0,0.06172839506172839,22.22222222222222,0)" xlink:href="#aw"/><use transform="matrix(0.06172839506172839,0,0,0.06172839506172839,34.5679012345679,0)" xlink:href="#ap"/><use transform="matrix(0.06172839506172839,0,0,0.06172839506172839,41.913580246913575,0)" xlink:href="#ao"/></g><g id="M"><use transform="matrix(0.06172839506172839,0,0,0.06172839506172839,0,0)" xlink:href="#an"/><use transform="matrix(0.06172839506172839,0,0,0.06172839506172839,6.172839506172839,0)" xlink:href="#ap"/><use transform="matrix(0.06172839506172839,0,0,0.06172839506172839,13.518518518518519,0)" xlink:href="#au"/><use transform="matrix(0.06172839506172839,0,0,0.06172839506172839,25.864197530864196,0)" xlink:href="#am"/><use transform="matrix(0.06172839506172839,0,0,0.06172839506172839,36.9753086419753,0)" xlink:href="#an"/></g><path fill="#333" d="M9 0v-24l116-142H16v-24h144v24L44-24h123V0H9" id="aZ"/><g id="N"><use transform="matrix(0.06172839506172839,0,0,0.06172839506172839,0,0)" xlink:href="#aZ"/><use transform="matrix(0.06172839506172839,0,0,0.06172839506172839,11.11111111111111,0)" xlink:href="#aw"/><use transform="matrix(0.06172839506172839,0,0,0.06172839506172839,23.45679012345679,0)" xlink:href="#az"/><use transform="matrix(0.06172839506172839,0,0,0.06172839506172839,35.80246913580247,0)" xlink:href="#ao"/></g><g id="O"><use transform="matrix(0.06172839506172839,0,0,0.06172839506172839,0,0)" xlink:href="#aU"/><use transform="matrix(0.06172839506172839,0,0,0.06172839506172839,6.172839506172839,0)" xlink:href="#ap"/><use transform="matrix(0.06172839506172839,0,0,0.06172839506172839,13.518518518518519,0)" xlink:href="#aw"/><use transform="matrix(0.06172839506172839,0,0,0.06172839506172839,25.864197530864196,0)" xlink:href="#aC"/></g><g id="P"><use transform="matrix(0.06172839506172839,0,0,0.06172839506172839,0,0)" xlink:href="#an"/><use transform="matrix(0.06172839506172839,0,0,0.06172839506172839,6.172839506172839,0)" xlink:href="#as"/><use transform="matrix(0.06172839506172839,0,0,0.06172839506172839,18.51851851851852,0)" xlink:href="#ao"/></g><g id="Q"><use transform="matrix(0.06172839506172839,0,0,0.06172839506172839,0,0)" xlink:href="#ar"/><use transform="matrix(0.06172839506172839,0,0,0.06172839506172839,11.11111111111111,0)" xlink:href="#aw"/><use transform="matrix(0.06172839506172839,0,0,0.06172839506172839,23.45679012345679,0)" xlink:href="#aC"/><use transform="matrix(0.06172839506172839,0,0,0.06172839506172839,41.91358024691358,0)" xlink:href="#aF"/><use transform="matrix(0.06172839506172839,0,0,0.06172839506172839,54.25925925925926,0)" xlink:href="#aw"/><use transform="matrix(0.06172839506172839,0,0,0.06172839506172839,66.60493827160494,0)" xlink:href="#az"/><use transform="matrix(0.06172839506172839,0,0,0.06172839506172839,78.95061728395062,0)" xlink:href="#ao"/><use transform="matrix(0.06172839506172839,0,0,0.06172839506172839,91.2962962962963,0)" xlink:href="#az"/><use transform="matrix(0.06172839506172839,0,0,0.06172839506172839,103.64197530864199,0)" xlink:href="#an"/><use transform="matrix(0.06172839506172839,0,0,0.06172839506172839,109.81481481481482,0)" xlink:href="#am"/></g><path fill="#333" d="M85-194c31 0 48 13 60 33l-1-100h32l1 261h-30c-2-10 0-23-3-31C134-8 116 4 85 4 32 4 16-35 15-94c0-66 23-100 70-100zm9 24c-40 0-46 34-46 75 0 40 6 74 45 74 42 0 51-32 51-76 0-42-9-74-50-73" id="ba"/><g id="R"><use transform="matrix(0.06172839506172839,0,0,0.06172839506172839,0,0)" xlink:href="#al"/><use transform="matrix(0.06172839506172839,0,0,0.06172839506172839,12.345679012345679,0)" xlink:href="#az"/><use transform="matrix(0.06172839506172839,0,0,0.06172839506172839,24.691358024691358,0)" xlink:href="#ba"/></g><g id="S"><use transform="matrix(0.06172839506172839,0,0,0.06172839506172839,0,0)" xlink:href="#am"/><use transform="matrix(0.06172839506172839,0,0,0.06172839506172839,11.11111111111111,0)" xlink:href="#ao"/><use transform="matrix(0.06172839506172839,0,0,0.06172839506172839,23.45679012345679,0)" xlink:href="#ar"/><use transform="matrix(0.06172839506172839,0,0,0.06172839506172839,34.5679012345679,0)" xlink:href="#au"/><use transform="matrix(0.06172839506172839,0,0,0.06172839506172839,46.913580246913575,0)" xlink:href="#ap"/><use transform="matrix(0.06172839506172839,0,0,0.06172839506172839,54.25925925925925,0)" xlink:href="#at"/><use transform="matrix(0.06172839506172839,0,0,0.06172839506172839,59.1358024691358,0)" xlink:href="#an"/><use transform="matrix(0.06172839506172839,0,0,0.06172839506172839,65.30864197530863,0)" xlink:href="#ax"/></g><g id="T"><use transform="matrix(0.06172839506172839,0,0,0.06172839506172839,0,0)" xlink:href="#am"/><use transform="matrix(0.06172839506172839,0,0,0.06172839506172839,11.11111111111111,0)" xlink:href="#ao"/><use transform="matrix(0.06172839506172839,0,0,0.06172839506172839,23.45679012345679,0)" xlink:href="#ap"/><use transform="matrix(0.06172839506172839,0,0,0.06172839506172839,30.80246913580247,0)" xlink:href="#aG"/><use transform="matrix(0.06172839506172839,0,0,0.06172839506172839,41.91358024691358,0)" xlink:href="#at"/><use transform="matrix(0.06172839506172839,0,0,0.06172839506172839,46.79012345679013,0)" xlink:href="#ar"/><use transform="matrix(0.06172839506172839,0,0,0.06172839506172839,57.90123456790124,0)" xlink:href="#ao"/><use transform="matrix(0.06172839506172839,0,0,0.06172839506172839,70.24691358024693,0)" xlink:href="#am"/></g><path fill="#333" d="M182-182c0 78-84 86-111 141h115V0H12c-6-101 99-100 120-180 1-22-12-31-33-32-23 0-32 14-35 34l-49-3c5-45 32-70 84-70 51 0 83 22 83 69" id="bb"/><g id="U"><use transform="matrix(0.06172839506172839,0,0,0.06172839506172839,0,0)" xlink:href="#bb"/><path fill="#333" d="M-1.1 1.2h20.73V3.5H-1.1z"/></g><g id="V"><use transform="matrix(0.06172839506172839,0,0,0.06172839506172839,0,0)" xlink:href="#aq"/><use transform="matrix(0.06172839506172839,0,0,0.06172839506172839,14.814814814814813,0)" xlink:href="#aX"/><use transform="matrix(0.06172839506172839,0,0,0.06172839506172839,27.160493827160494,0)" xlink:href="#aX"/><use transform="matrix(0.06172839506172839,0,0,0.06172839506172839,39.50617283950617,0)" xlink:href="#ap"/><use transform="matrix(0.06172839506172839,0,0,0.06172839506172839,46.85185185185185,0)" xlink:href="#ao"/><use transform="matrix(0.06172839506172839,0,0,0.06172839506172839,59.197530864197525,0)" xlink:href="#aX"/><use transform="matrix(0.06172839506172839,0,0,0.06172839506172839,71.5432098765432,0)" xlink:href="#al"/><use transform="matrix(0.06172839506172839,0,0,0.06172839506172839,83.88888888888889,0)" xlink:href="#an"/><use transform="matrix(0.06172839506172839,0,0,0.06172839506172839,90.06172839506172,0)" xlink:href="#ao"/></g><g id="W"><use transform="matrix(0.06172839506172839,0,0,0.06172839506172839,0,0)" xlink:href="#aU"/><use transform="matrix(0.06172839506172839,0,0,0.06172839506172839,6.172839506172839,0)" xlink:href="#aw"/><use transform="matrix(0.06172839506172839,0,0,0.06172839506172839,18.51851851851852,0)" xlink:href="#ap"/></g><g id="X"><use transform="matrix(0.06172839506172839,0,0,0.06172839506172839,0,0)" xlink:href="#ao"/><use transform="matrix(0.06172839506172839,0,0,0.06172839506172839,12.345679012345679,0)" xlink:href="#al"/><use transform="matrix(0.06172839506172839,0,0,0.06172839506172839,24.691358024691358,0)" xlink:href="#ar"/><use transform="matrix(0.06172839506172839,0,0,0.06172839506172839,35.80246913580247,0)" xlink:href="#as"/></g><g id="Y"><use transform="matrix(0.06172839506172839,0,0,0.06172839506172839,0,0)" xlink:href="#aw"/><use transform="matrix(0.06172839506172839,0,0,0.06172839506172839,12.345679012345679,0)" xlink:href="#aU"/></g><g id="Z"><use transform="matrix(0.06172839506172839,0,0,0.06172839506172839,0,0)" xlink:href="#an"/><use transform="matrix(0.06172839506172839,0,0,0.06172839506172839,6.172839506172839,0)" xlink:href="#as"/><use transform="matrix(0.06172839506172839,0,0,0.06172839506172839,18.51851851851852,0)" xlink:href="#ao"/></g><g id="aa"><use transform="matrix(0.06172839506172839,0,0,0.06172839506172839,0,0)" xlink:href="#an"/><use transform="matrix(0.06172839506172839,0,0,0.06172839506172839,6.172839506172839,0)" xlink:href="#ao"/><use transform="matrix(0.06172839506172839,0,0,0.06172839506172839,18.51851851851852,0)" xlink:href="#az"/></g><g id="ab"><use transform="matrix(0.06172839506172839,0,0,0.06172839506172839,0,0)" xlink:href="#ar"/><use transform="matrix(0.06172839506172839,0,0,0.06172839506172839,11.11111111111111,0)" xlink:href="#aw"/><use transform="matrix(0.06172839506172839,0,0,0.06172839506172839,23.45679012345679,0)" xlink:href="#az"/><use transform="matrix(0.06172839506172839,0,0,0.06172839506172839,35.80246913580247,0)" xlink:href="#an"/><use transform="matrix(0.06172839506172839,0,0,0.06172839506172839,41.97530864197531,0)" xlink:href="#ap"/><use transform="matrix(0.06172839506172839,0,0,0.06172839506172839,49.32098765432099,0)" xlink:href="#aw"/><use transform="matrix(0.06172839506172839,0,0,0.06172839506172839,61.666666666666664,0)" xlink:href="#aA"/></g><g id="ac"><use transform="matrix(0.06172839506172839,0,0,0.06172839506172839,0,0)" xlink:href="#aU"/><use transform="matrix(0.06172839506172839,0,0,0.06172839506172839,6.172839506172839,0)" xlink:href="#al"/><use transform="matrix(0.06172839506172839,0,0,0.06172839506172839,18.51851851851852,0)" xlink:href="#aC"/><use transform="matrix(0.06172839506172839,0,0,0.06172839506172839,36.9753086419753,0)" xlink:href="#at"/><use transform="matrix(0.06172839506172839,0,0,0.06172839506172839,41.85185185185185,0)" xlink:href="#aA"/><use transform="matrix(0.06172839506172839,0,0,0.06172839506172839,46.72839506172839,0)" xlink:href="#at"/><use transform="matrix(0.06172839506172839,0,0,0.06172839506172839,51.60493827160494,0)" xlink:href="#ao"/><use transform="matrix(0.06172839506172839,0,0,0.06172839506172839,63.95061728395061,0)" xlink:href="#am"/></g><path fill="#333" d="M23 0v-37h61v-169l-59 37v-38l62-41h46v211h57V0H23" id="bc"/><g id="ad"><use transform="matrix(0.06172839506172839,0,0,0.06172839506172839,0,0)" xlink:href="#bc"/><path fill="#333" d="M-1.1 1.2h20.73V3.5H-1.1z"/></g><path fill="#333" d="M232-93c-1 65-40 97-104 97C67 4 28-28 28-90v-158h33c8 89-33 224 67 224 102 0 64-133 71-224h33v155" id="bd"/><g id="ae"><use transform="matrix(0.06172839506172839,0,0,0.06172839506172839,0,0)" xlink:href="#bd"/><use transform="matrix(0.06172839506172839,0,0,0.06172839506172839,15.987654320987653,0)" xlink:href="#aA"/><use transform="matrix(0.06172839506172839,0,0,0.06172839506172839,20.864197530864196,0)" xlink:href="#an"/><use transform="matrix(0.06172839506172839,0,0,0.06172839506172839,27.037037037037035,0)" xlink:href="#at"/><use transform="matrix(0.06172839506172839,0,0,0.06172839506172839,31.91358024691358,0)" xlink:href="#aC"/><use transform="matrix(0.06172839506172839,0,0,0.06172839506172839,50.37037037037037,0)" xlink:href="#al"/><use transform="matrix(0.06172839506172839,0,0,0.06172839506172839,62.716049382716044,0)" xlink:href="#an"/><use transform="matrix(0.06172839506172839,0,0,0.06172839506172839,68.88888888888889,0)" xlink:href="#ao"/></g><g id="af"><use transform="matrix(0.06172839506172839,0,0,0.06172839506172839,0,0)" xlink:href="#al"/><use transform="matrix(0.06172839506172839,0,0,0.06172839506172839,12.345679012345679,0)" xlink:href="#aX"/><use transform="matrix(0.06172839506172839,0,0,0.06172839506172839,24.691358024691358,0)" xlink:href="#aX"/><use transform="matrix(0.06172839506172839,0,0,0.06172839506172839,37.03703703703704,0)" xlink:href="#ap"/><use transform="matrix(0.06172839506172839,0,0,0.06172839506172839,44.382716049382715,0)" xlink:href="#ao"/><use transform="matrix(0.06172839506172839,0,0,0.06172839506172839,56.72839506172839,0)" xlink:href="#aX"/><use transform="matrix(0.06172839506172839,0,0,0.06172839506172839,69.07407407407408,0)" xlink:href="#al"/><use transform="matrix(0.06172839506172839,0,0,0.06172839506172839,81.41975308641976,0)" xlink:href="#an"/><use transform="matrix(0.06172839506172839,0,0,0.06172839506172839,87.5925925925926,0)" xlink:href="#ao"/></g><g id="ag"><use transform="matrix(0.06172839506172839,0,0,0.06172839506172839,0,0)" xlink:href="#am"/><use transform="matrix(0.06172839506172839,0,0,0.06172839506172839,11.11111111111111,0)" xlink:href="#ar"/><use transform="matrix(0.06172839506172839,0,0,0.06172839506172839,22.22222222222222,0)" xlink:href="#aw"/><use transform="matrix(0.06172839506172839,0,0,0.06172839506172839,34.5679012345679,0)" xlink:href="#ap"/><use transform="matrix(0.06172839506172839,0,0,0.06172839506172839,41.913580246913575,0)" xlink:href="#ao"/></g><path fill="#333" d="M240-174c0 40-23 61-54 70L253 0h-59l-57-94H76V0H24v-248c93 4 217-23 216 74zM76-134c48-2 112 12 112-38 0-48-66-32-112-35v73" id="be"/><path fill="#333" d="M199 0l-22-63H83L61 0H9l90-248h61L250 0h-51zm-33-102l-36-108c-10 38-24 72-36 108h72" id="bf"/><path fill="#333" d="M182-130c37 4 62 22 62 59C244 23 116-4 24 0v-248c84 5 203-23 205 63 0 31-19 50-47 55zM76-148c40-3 101 13 101-30 0-44-60-28-101-31v61zm0 110c48-3 116 14 116-37 0-48-69-32-116-35v72" id="bg"/><path fill="#333" d="M24 0v-248h195v40H76v63h132v40H76v65h150V0H24" id="bh"/><path fill="#333" d="M136-208V0H84v-208H4v-40h212v40h-80" id="bi"/><path fill="#333" d="M14-72v-43h91v43H14" id="bj"/><path fill="#333" d="M147 0H94L2-248h55l64 206c17-72 42-137 63-206h54" id="bk"/><g id="ah"><use transform="matrix(0.06172839506172839,0,0,0.06172839506172839,0,0)" xlink:href="#be"/><use transform="matrix(0.06172839506172839,0,0,0.06172839506172839,15.987654320987653,0)" xlink:href="#bf"/><use transform="matrix(0.06172839506172839,0,0,0.06172839506172839,31.975308641975307,0)" xlink:href="#bg"/><use transform="matrix(0.06172839506172839,0,0,0.06172839506172839,47.96296296296296,0)" xlink:href="#bh"/><use transform="matrix(0.06172839506172839,0,0,0.06172839506172839,62.77777777777777,0)" xlink:href="#bi"/><use transform="matrix(0.06172839506172839,0,0,0.06172839506172839,75.06172839506172,0)" xlink:href="#bj"/><use transform="matrix(0.06172839506172839,0,0,0.06172839506172839,82.4074074074074,0)" xlink:href="#bk"/></g><path fill="#333" d="M114-157C55-157 80-60 75 0H25v-261h50l-1 109c12-26 28-41 61-42 86-1 58 113 63 194h-50c-7-57 23-157-34-157" id="bl"/><path fill="#333" d="M115-3C79 11 28 4 28-45v-112H4v-33h27l15-45h31v45h36v33H77v99c-1 23 16 31 38 25v30" id="bm"/><path fill="#333" d="M85 4C-2 5 27-109 22-190h50c7 57-23 150 33 157 60-5 35-97 40-157h50l1 190h-47c-2-12 1-28-3-38-12 25-28 42-61 42" id="bn"/><g id="ai"><use transform="matrix(0.06172839506172839,0,0,0.06172839506172839,0,0)" xlink:href="#bf"/><use transform="matrix(0.06172839506172839,0,0,0.06172839506172839,15.987654320987653,0)" xlink:href="#aL"/><use transform="matrix(0.06172839506172839,0,0,0.06172839506172839,24.629629629629626,0)" xlink:href="#aO"/><use transform="matrix(0.06172839506172839,0,0,0.06172839506172839,36.9753086419753,0)" xlink:href="#bl"/><use transform="matrix(0.06172839506172839,0,0,0.06172839506172839,50.49382716049382,0)" xlink:href="#aQ"/><use transform="matrix(0.06172839506172839,0,0,0.06172839506172839,56.666666666666664,0)" xlink:href="#bm"/><use transform="matrix(0.06172839506172839,0,0,0.06172839506172839,64.01234567901234,0)" xlink:href="#aK"/><use transform="matrix(0.06172839506172839,0,0,0.06172839506172839,76.35802469135803,0)" xlink:href="#aO"/><use transform="matrix(0.06172839506172839,0,0,0.06172839506172839,88.70370370370371,0)" xlink:href="#bm"/><use transform="matrix(0.06172839506172839,0,0,0.06172839506172839,96.0493827160494,0)" xlink:href="#bn"/><use transform="matrix(0.06172839506172839,0,0,0.06172839506172839,109.56790123456791,0)" xlink:href="#aL"/><use transform="matrix(0.06172839506172839,0,0,0.06172839506172839,118.20987654320989,0)" xlink:href="#aK"/></g><g id="aj"><use transform="matrix(0.06172839506172839,0,0,0.06172839506172839,0,0)" xlink:href="#aN"/><use transform="matrix(0.06172839506172839,0,0,0.06172839506172839,14.814814814814813,0)" xlink:href="#aO"/><use transform="matrix(0.06172839506172839,0,0,0.06172839506172839,27.160493827160494,0)" xlink:href="#aP"/><use transform="matrix(0.06172839506172839,0,0,0.06172839506172839,40.67901234567901,0)" xlink:href="#aL"/><use transform="matrix(0.06172839506172839,0,0,0.06172839506172839,49.32098765432099,0)" xlink:href="#aQ"/><use transform="matrix(0.06172839506172839,0,0,0.06172839506172839,55.49382716049383,0)" xlink:href="#aR"/><use transform="matrix(0.06172839506172839,0,0,0.06172839506172839,69.01234567901234,0)" xlink:href="#aS"/></g></defs></g></svg>